<svg width="141" height="37" viewBox="0 0 141 37" xmlns="http://www.w3.org/2000/svg"><title>KONG</title><path d="M8.496 15.192h1.296c1.2 0 2.064-.376 2.592-1.128L20.256 2.64c.464-.608.964-1.028 1.5-1.26.536-.232 1.204-.348 2.004-.348h7.056L20.448 15.168c-.736.976-1.528 1.68-2.376 2.112.608.224 1.16.536 1.656.936s.96.92 1.392 1.56L31.68 36h-7.248c-.464 0-.86-.032-1.188-.096-.328-.064-.612-.16-.852-.288-.24-.128-.448-.284-.624-.468-.176-.184-.344-.396-.504-.636l-7.92-12.168c-.288-.448-.652-.764-1.092-.948-.44-.184-1.036-.276-1.788-.276H8.496V36H.384V1.032h8.112v14.16zm60.12 3.312c0 2.528-.436 4.88-1.308 7.056-.872 2.176-2.1 4.068-3.684 5.676-1.584 1.608-3.492 2.868-5.724 3.78-2.232.912-4.708 1.368-7.428 1.368-2.72 0-5.2-.456-7.44-1.368-2.24-.912-4.156-2.172-5.748-3.78-1.592-1.608-2.824-3.5-3.696-5.676-.872-2.176-1.308-4.528-1.308-7.056 0-2.528.436-4.88 1.308-7.056.872-2.176 2.104-4.064 3.696-5.664 1.592-1.6 3.508-2.856 5.748-3.768 2.24-.912 4.72-1.368 7.44-1.368 2.72 0 5.196.46 7.428 1.38 2.232.92 4.14 2.18 5.724 3.78 1.584 1.6 2.812 3.488 3.684 5.664.872 2.176 1.308 4.52 1.308 7.032zm-8.304 0c0-1.728-.224-3.284-.672-4.668-.448-1.384-1.092-2.556-1.932-3.516-.84-.96-1.868-1.696-3.084-2.208-1.216-.512-2.6-.768-4.152-.768-1.568 0-2.964.256-4.188.768-1.224.512-2.256 1.248-3.096 2.208-.84.96-1.484 2.132-1.932 3.516-.448 1.384-.672 2.94-.672 4.668 0 1.744.224 3.308.672 4.692.448 1.384 1.092 2.556 1.932 3.516.84.96 1.872 1.692 3.096 2.196 1.224.504 2.62.756 4.188.756 1.552 0 2.936-.252 4.152-.756 1.216-.504 2.244-1.236 3.084-2.196.84-.96 1.484-2.132 1.932-3.516.448-1.384.672-2.948.672-4.692zM103.92 1.032V36h-4.224c-.624 0-1.148-.1-1.572-.3-.424-.2-.844-.548-1.26-1.044L80.376 13.8c.064.624.108 1.228.132 1.812.024.584.036 1.132.036 1.644V36h-7.152V1.032h4.272c.352 0 .648.016.888.048s.456.092.648.18.376.212.552.372c.176.16.376.376.6.648l16.632 21c-.08-.672-.136-1.324-.168-1.956-.032-.632-.048-1.228-.048-1.788V1.032h7.152zm23.568 16.848h12.432v14.76c-1.792 1.312-3.7 2.264-5.724 2.856-2.024.592-4.14.888-6.348.888-2.88 0-5.5-.452-7.86-1.356-2.36-.904-4.38-2.152-6.06-3.744-1.68-1.592-2.976-3.48-3.888-5.664-.912-2.184-1.368-4.556-1.368-7.116 0-2.608.432-5.004 1.296-7.188.864-2.184 2.1-4.068 3.708-5.652 1.608-1.584 3.552-2.816 5.832-3.696 2.28-.88 4.828-1.32 7.644-1.32 1.456 0 2.824.12 4.104.36 1.28.24 2.46.568 3.54.984 1.08.416 2.068.912 2.964 1.488.896.576 1.696 1.2 2.4 1.872l-2.352 3.576c-.368.56-.844.904-1.428 1.032s-1.212-.016-1.884-.432c-.64-.384-1.244-.716-1.812-.996-.568-.28-1.148-.508-1.74-.684-.592-.176-1.216-.304-1.872-.384-.656-.08-1.392-.12-2.208-.12-1.52 0-2.888.268-4.104.804-1.216.536-2.252 1.292-3.108 2.268-.856.976-1.516 2.148-1.98 3.516-.464 1.368-.696 2.892-.696 4.572 0 1.856.256 3.504.768 4.944s1.236 2.656 2.172 3.648c.936.992 2.056 1.748 3.36 2.268 1.304.52 2.748.78 4.332.78.976 0 1.86-.096 2.652-.288.792-.192 1.564-.448 2.316-.768v-5.304h-3.456c-.512 0-.912-.136-1.2-.408-.288-.272-.432-.616-.432-1.032V17.88z" fill="#fff" fill-rule="evenodd"/></svg>