<svg xmlns="http://www.w3.org/2000/svg" xmlns:xlink="http://www.w3.org/1999/xlink" width="72" height="72" viewBox="0 0 72 72"><defs><rect id="a" width="39" height="8" y="22" rx="1"/><mask id="b" width="39" height="8" x="0" y="0" fill="#fff"><use xlink:href="#a"/></mask></defs><g fill="none" fill-rule="evenodd" transform="translate(17 21)"><g fill="#000"><path d="M18 2h2v18h-2z"/><path d="M19.414 0l7.778 7.778-1.414 1.414L18 1.414z"/><path d="M18.778 0L11 7.778l1.414 1.414 7.778-7.778z"/></g><g fill="#000"><path d="M0 13h4v2H0zM6 13h4v2H6zM12 13h4v2h-4zM34 13h4v2h-4zM28 13h4v2h-4zM22 13h4v2h-4z"/></g><use stroke="#000" stroke-width="4" mask="url(#b)" xlink:href="#a"/></g></svg>