<svg width="140" height="38" viewBox="0 0 140 38" xmlns="http://www.w3.org/2000/svg"><title>LOGO</title><path d="M22.475 30.25V37H.525V.575h8.45V30.25h13.5zm40.05-11.475c0 2.633-.454 5.083-1.362 7.35-.91 2.267-2.188 4.237-3.838 5.913-1.65 1.675-3.637 2.987-5.962 3.937-2.326.95-4.905 1.425-7.738 1.425s-5.417-.475-7.75-1.425c-2.333-.95-4.33-2.262-5.988-3.937-1.658-1.676-2.94-3.646-3.85-5.913-.908-2.267-1.362-4.717-1.362-7.35s.454-5.083 1.362-7.35c.91-2.267 2.192-4.233 3.85-5.9 1.66-1.667 3.655-2.975 5.988-3.925C38.208.65 40.792.175 43.625.175s5.412.48 7.738 1.438c2.325.958 4.312 2.27 5.962 3.937 1.65 1.667 2.93 3.633 3.838 5.9.908 2.267 1.362 4.708 1.362 7.325zm-8.65 0c0-1.8-.233-3.42-.7-4.863-.467-1.44-1.137-2.662-2.012-3.662-.876-1-1.946-1.767-3.213-2.3-1.267-.533-2.708-.8-4.325-.8-1.633 0-3.087.267-4.363.8-1.275.533-2.35 1.3-3.224 2.3-.876 1-1.546 2.22-2.013 3.662-.467 1.442-.7 3.063-.7 4.863 0 1.817.233 3.446.7 4.887.467 1.442 1.137 2.663 2.013 3.663.875 1 1.95 1.762 3.224 2.288 1.276.525 2.73.787 4.363.787 1.617 0 3.058-.262 4.325-.787 1.267-.526 2.337-1.288 3.213-2.288.875-1 1.545-2.22 2.012-3.663.467-1.44.7-3.07.7-4.887zM85 18.125h12.95V33.5c-1.867 1.367-3.854 2.358-5.962 2.975-2.11.617-4.313.925-6.613.925-3 0-5.73-.47-8.188-1.412s-4.562-2.242-6.312-3.9c-1.75-1.66-3.1-3.625-4.05-5.9-.95-2.276-1.425-4.746-1.425-7.413 0-2.717.45-5.212 1.35-7.488.9-2.275 2.187-4.237 3.863-5.887 1.675-1.65 3.7-2.933 6.075-3.85C79.063.633 81.718.175 84.65.175c1.517 0 2.942.125 4.275.375 1.333.25 2.562.592 3.688 1.025 1.125.433 2.154.95 3.087 1.55.933.6 1.767 1.25 2.5 1.95L95.75 8.8c-.383.583-.88.942-1.488 1.075S93 9.858 92.3 9.425c-.667-.4-1.296-.746-1.887-1.038-.592-.29-1.196-.53-1.813-.712-.617-.183-1.267-.317-1.95-.4-.683-.083-1.45-.125-2.3-.125-1.583 0-3.008.28-4.275.838-1.267.558-2.346 1.345-3.238 2.362-.89 1.017-1.58 2.237-2.062 3.662-.483 1.426-.725 3.013-.725 4.763 0 1.933.267 3.65.8 5.15.533 1.5 1.287 2.767 2.263 3.8.975 1.033 2.14 1.82 3.5 2.363 1.358.54 2.862.812 4.512.812 1.017 0 1.937-.1 2.762-.3.826-.2 1.63-.467 2.413-.8v-5.525h-3.6c-.533 0-.95-.142-1.25-.425-.3-.283-.45-.642-.45-1.075v-4.65zm54.375.65c0 2.633-.454 5.083-1.363 7.35-.908 2.267-2.187 4.237-3.837 5.913-1.65 1.675-3.637 2.987-5.963 3.937-2.325.95-4.904 1.425-7.737 1.425s-5.417-.475-7.75-1.425c-2.333-.95-4.33-2.262-5.987-3.937-1.66-1.676-2.942-3.646-3.85-5.913-.91-2.267-1.363-4.717-1.363-7.35s.454-5.083 1.362-7.35c.91-2.267 2.192-4.233 3.85-5.9 1.66-1.667 3.655-2.975 5.988-3.925 2.333-.95 4.917-1.425 7.75-1.425s5.412.48 7.737 1.438c2.326.958 4.313 2.27 5.963 3.937 1.65 1.667 2.93 3.633 3.837 5.9.91 2.267 1.363 4.708 1.363 7.325zm-8.65 0c0-1.8-.233-3.42-.7-4.863-.467-1.44-1.137-2.662-2.013-3.662-.875-1-1.945-1.767-3.212-2.3-1.267-.533-2.708-.8-4.325-.8-1.633 0-3.087.267-4.362.8-1.276.533-2.35 1.3-3.226 2.3-.875 1-1.545 2.22-2.012 3.662-.467 1.442-.7 3.063-.7 4.863 0 1.817.233 3.446.7 4.887.467 1.442 1.137 2.663 2.012 3.663.876 1 1.95 1.762 3.226 2.288 1.275.525 2.73.787 4.362.787 1.617 0 3.058-.262 4.325-.787 1.267-.526 2.337-1.288 3.212-2.288.876-1 1.546-2.22 2.013-3.663.467-1.44.7-3.07.7-4.887z" fill="#000" fill-rule="evenodd"/></svg>