<svg xmlns="http://www.w3.org/2000/svg" width="140" height="38" viewBox="0 0 140 38">
  <path fill="#FFF" fill-rule="evenodd" d="M22.475,30.25 L22.475,37 L0.525,37 L0.525,0.575 L8.975,0.575 L8.975,30.25 L22.475,30.25 Z M62.525,18.775 C62.525,21.408 62.071,23.858 61.163,26.125 C60.253,28.392 58.975,30.362 57.325,32.038 C55.675,33.713 53.688,35.025 51.363,35.975 C49.037,36.925 46.458,37.4 43.625,37.4 C40.792,37.4 38.208,36.925 35.875,35.975 C33.542,35.025 31.545,33.713 29.887,32.038 C28.229,30.362 26.947,28.392 26.037,26.125 C25.129,23.858 24.675,21.408 24.675,18.775 C24.675,16.142 25.129,13.692 26.037,11.425 C26.947,9.158 28.229,7.192 29.887,5.525 C31.547,3.858 33.542,2.55 35.875,1.6 C38.208,0.65 40.792,0.175 43.625,0.175 C46.458,0.175 49.037,0.655 51.363,1.613 C53.688,2.571 55.675,3.883 57.325,5.55 C58.975,7.217 60.255,9.183 61.163,11.45 C62.071,13.717 62.525,16.158 62.525,18.775 L62.525,18.775 Z M53.875,18.775 C53.875,16.975 53.642,15.355 53.175,13.912 C52.708,12.472 52.038,11.25 51.163,10.25 C50.287,9.25 49.217,8.483 47.95,7.95 C46.683,7.417 45.242,7.15 43.625,7.15 C41.992,7.15 40.538,7.417 39.262,7.95 C37.987,8.483 36.912,9.25 36.038,10.25 C35.162,11.25 34.492,12.47 34.025,13.912 C33.558,15.354 33.325,16.975 33.325,18.775 C33.325,20.592 33.558,22.221 34.025,23.662 C34.492,25.104 35.162,26.325 36.038,27.325 C36.913,28.325 37.988,29.087 39.262,29.613 C40.538,30.138 41.992,30.4 43.625,30.4 C45.242,30.4 46.683,30.138 47.95,29.613 C49.217,29.087 50.287,28.325 51.163,27.325 C52.038,26.325 52.708,25.105 53.175,23.662 C53.642,22.222 53.875,20.592 53.875,18.775 L53.875,18.775 Z M85,18.125 L97.95,18.125 L97.95,33.5 C96.083,34.867 94.096,35.858 91.988,36.475 C89.878,37.092 87.675,37.4 85.375,37.4 C82.375,37.4 79.645,36.93 77.187,35.988 C74.729,35.046 72.625,33.746 70.875,32.088 C69.125,30.428 67.775,28.463 66.825,26.188 C65.875,23.912 65.4,21.442 65.4,18.775 C65.4,16.058 65.85,13.563 66.75,11.287 C67.65,9.012 68.937,7.05 70.613,5.4 C72.288,3.75 74.313,2.467 76.688,1.55 C79.063,0.633 81.718,0.175 84.65,0.175 C86.167,0.175 87.592,0.3 88.925,0.55 C90.258,0.8 91.487,1.142 92.613,1.575 C93.738,2.008 94.767,2.525 95.7,3.125 C96.633,3.725 97.467,4.375 98.2,5.075 L95.75,8.8 C95.367,9.383 94.87,9.742 94.262,9.875 C93.654,10.008 93,9.858 92.3,9.425 C91.633,9.025 91.004,8.679 90.413,8.387 C89.821,8.097 89.217,7.857 88.6,7.675 C87.983,7.492 87.333,7.358 86.65,7.275 C85.967,7.192 85.2,7.15 84.35,7.15 C82.767,7.15 81.342,7.43 80.075,7.988 C78.808,8.546 77.729,9.333 76.837,10.35 C75.947,11.367 75.257,12.587 74.775,14.012 C74.292,15.438 74.05,17.025 74.05,18.775 C74.05,20.708 74.317,22.425 74.85,23.925 C75.383,25.425 76.137,26.692 77.113,27.725 C78.088,28.758 79.253,29.545 80.613,30.088 C81.971,30.628 83.475,30.9 85.125,30.9 C86.142,30.9 87.062,30.8 87.887,30.6 C88.713,30.4 89.517,30.133 90.3,29.8 L90.3,24.275 L86.7,24.275 C86.167,24.275 85.75,24.133 85.45,23.85 C85.15,23.567 85,23.208 85,22.775 L85,18.125 Z M139.375,18.775 C139.375,21.408 138.921,23.858 138.012,26.125 C137.104,28.392 135.825,30.362 134.175,32.038 C132.525,33.713 130.538,35.025 128.212,35.975 C125.887,36.925 123.308,37.4 120.475,37.4 C117.642,37.4 115.058,36.925 112.725,35.975 C110.392,35.025 108.395,33.713 106.738,32.038 C105.078,30.362 103.796,28.392 102.888,26.125 C101.978,23.858 101.525,21.408 101.525,18.775 C101.525,16.142 101.979,13.692 102.887,11.425 C103.797,9.158 105.079,7.192 106.737,5.525 C108.397,3.858 110.392,2.55 112.725,1.6 C115.058,0.65 117.642,0.175 120.475,0.175 C123.308,0.175 125.887,0.655 128.212,1.613 C130.538,2.571 132.525,3.883 134.175,5.55 C135.825,7.217 137.105,9.183 138.012,11.45 C138.922,13.717 139.375,16.158 139.375,18.775 Z M130.725,18.775 C130.725,16.975 130.492,15.355 130.025,13.912 C129.558,12.472 128.888,11.25 128.012,10.25 C127.137,9.25 126.067,8.483 124.8,7.95 C123.533,7.417 122.092,7.15 120.475,7.15 C118.842,7.15 117.388,7.417 116.113,7.95 C114.837,8.483 113.763,9.25 112.887,10.25 C112.012,11.25 111.342,12.47 110.875,13.912 C110.408,15.354 110.175,16.975 110.175,18.775 C110.175,20.592 110.408,22.221 110.875,23.662 C111.342,25.104 112.012,26.325 112.887,27.325 C113.763,28.325 114.837,29.087 116.113,29.613 C117.388,30.138 118.843,30.4 120.475,30.4 C122.092,30.4 123.533,30.138 124.8,29.613 C126.067,29.087 127.137,28.325 128.012,27.325 C128.888,26.325 129.558,25.105 130.025,23.662 C130.492,22.222 130.725,20.592 130.725,18.775 Z"/>
</svg>
