<?xml version="1.0" standalone="no"?>
<!DOCTYPE svg PUBLIC "-//W3C//DTD SVG 1.1//EN" "http://www.w3.org/Graphics/SVG/1.1/DTD/svg11.dtd" >
<svg xmlns="http://www.w3.org/2000/svg">
<metadata>
<json>
<![CDATA[
{
	"fontFamily": "Linearicons",
	"majorVersion": 2,
	"minorVersion": 0,
	"fontURL": "http://linearicons.com",
	"designer": "",
	"designerURL": "http://perxis.com",
	"license": "http://linearicons.com/license",
	"licenseURL": "http://linearicons.com/license",
	"copyright": "Copyright © 2015 Perxis.com. All Rights Reserved.",
	"description": "Designed by Perxis (http://perxis.com).\nFont generated by IcoMoon.",
	"version": "Version 2.0",
	"fontId": "Linearicons",
	"psName": "Linearicons",
	"subFamily": "Regular",
	"fullName": "Linearicons"
}
]]>
</json>
</metadata>
<defs>
<font id="Linearicons" horiz-adv-x="2048">
<font-face units-per-em="2048" ascent="1945.6" descent="-102.4" />
<missing-glyph horiz-adv-x="2048" />
<glyph unicode="&#x20;" horiz-adv-x="819.2" d="" />
<glyph unicode="&#xe600;" glyph-name="home" data-tags="home, building, house" d="M2034.764 699.948l-904.1 999.268c-28.102 31.066-65.984 48.172-106.666 48.172-0.004 0 0 0 0 0-40.678 0-78.564-17.11-106.668-48.172l-904.1-999.268c-18.97-20.97-17.35-53.348 3.616-72.316 9.798-8.864 22.086-13.232 34.336-13.232 13.964 0 27.876 5.676 37.984 16.852l218.032 240.982v-821.034c0-84.694 68.906-153.6 153.6-153.6h1126.4c84.694 0 153.6 68.906 153.6 153.6v821.034l218.036-240.986c18.97-20.966 51.348-22.592 72.316-3.616 20.966 18.97 22.586 51.35 3.612 72.316zM1228.8 0h-409.6v460.8c0 28.23 22.97 51.2 51.2 51.2h307.2c28.23 0 51.2-22.97 51.2-51.2v-460.8zM1638.4 51.2c0-28.23-22.97-51.2-51.2-51.2h-256v460.8c0 84.698-68.902 153.6-153.6 153.6h-307.2c-84.694 0-153.6-68.902-153.6-153.6v-460.8h-256c-28.23 0-51.2 22.97-51.2 51.2v934.212l583.664 645.104c8.444 9.334 19.36 14.474 30.736 14.474s22.292-5.14 30.732-14.47l583.668-645.104v-934.214z" />
<glyph unicode="&#xe60d;" glyph-name="pencil" data-tags="pencil, write, edit" d="M1956.202 1853.804c-57.54 57.536-134.036 89.222-215.402 89.222-81.37 0-157.866-31.686-215.402-89.222l-1305.6-1305.6c-5.29-5.29-9.356-11.674-11.914-18.708l-204.8-563.2c-6.8-18.694-2.154-39.636 11.914-53.7 9.77-9.776 22.86-14.998 36.208-14.998 5.866 0 11.782 1.004 17.488 3.082l563.2 204.8c7.030 2.56 13.418 6.624 18.708 11.916l1305.6 1305.6c57.536 57.536 89.226 134.036 89.226 215.404s-31.686 157.866-89.226 215.402zM586.228 197.834l-449.418-163.42 163.424 449.414 1133.366 1133.366 285.994-285.994-1133.366-1133.366zM1883.798 1495.404l-91.798-91.798-285.994 285.994 91.798 91.798c38.196 38.196 88.98 59.228 142.996 59.228s104.8-21.036 142.998-59.232c38.196-38.196 59.232-88.98 59.232-142.996s-21.040-104.8-59.232-142.996z" />
<glyph unicode="&#xe610;" glyph-name="pencil3" data-tags="pencil, write, edit" d="M1996.8 1331.2c0 282.316-229.68 512-512 512-77.148 0-151.328-16.748-220.468-49.78-5.402-2.58-10.096-6.020-14.1-10.026l-0.032 0.032-1081.606-1081.626c-7.834-7.834-12.916-17.996-14.48-28.964l-102.4-716.8c-2.278-15.952 3.084-32.052 14.484-43.444 9.668-9.668 22.724-14.998 36.198-14.998 2.406 0 4.826 0.17 7.244 0.516l716.8 102.4c10.966 1.564 21.13 6.646 28.964 14.48l1080.826 1080.8c0.028 0.026 0.054 0.054 0.076 0.076l0.714 0.714-0.010 0.010c4.004 4.004 7.42 8.724 10.004 14.122 33.036 69.152 49.786 143.332 49.786 220.486zM1894.4 1331.2c0-58.912-12.208-115.6-36.244-168.656l-117.78-117.78c-10.72 294.068-247.942 531.292-542.012 542.012l117.782 117.782c53.056 24.032 109.748 36.24 168.652 36.24 225.852 0 409.6-183.744 409.6-409.6zM205.318 307.188l43.36 303.532c19.35 2.444 38.928 3.68 58.522 3.68 254.086 0 460.8-206.714 460.8-460.8 0-19.594-1.248-39.168-3.692-58.522l-303.52-43.36c-0.282 140.748-114.72 255.188-255.468 255.468zM1087.6 1476.006c29.482 5.83 59.684 8.794 90 8.794 108.636 0 208.596-37.812 287.46-100.934l-797.66-797.66c-92.736 77.348-210.624 125.472-339.418 130.172l759.62 759.628zM739.808 513.798l797.658 797.66c63.124-78.864 100.934-178.822 100.934-287.46 0-30.31-2.966-60.516-8.794-90.004l-759.628-759.612c-4.698 128.79-52.826 246.678-130.17 339.414zM190.596 204.128c4.708 0.428 9.444 0.672 14.204 0.672 84.694 0 153.6-68.902 153.6-153.6 0-4.762-0.244-9.498-0.672-14.202l-194.988-27.856 27.856 194.986z" />
<glyph unicode="&#xe625;" glyph-name="eye-dropper" data-tags="eye-dropper, color-picker" d="M1945.6 1538.572c0 81.37-31.686 157.868-89.226 215.402-57.532 57.54-134.036 89.226-215.402 89.226-81.372 0-157.868-31.686-215.402-89.226l-350.372-350.368-66.198 66.198c-19.994 19.996-52.412 19.996-72.406 0s-19.996-52.412 0-72.406l117.398-117.398-728.596-728.602c-39.792-39.792-63.398-92.588-67.386-147.772-89.252-22.080-155.612-102.848-155.612-198.826 0-112.928 91.872-204.8 204.8-204.8 95.978 0 176.746 66.362 198.828 155.612 55.18 3.99 107.988 27.596 147.772 67.388l728.598 728.592 117.398-117.398c9.996-9.996 23.098-14.996 36.202-14.996s26.204 4.998 36.202 14.998c19.996 19.994 19.996 52.412 0 72.406l-66.196 66.196 350.368 350.368c57.54 57.536 89.226 134.036 89.226 215.404zM581.398 295.398c-29.37-29.366-71.444-42.966-112.528-36.364-15.020 2.41-30.336-1.984-41.796-11.99-11.46-10.010-17.872-24.598-17.504-39.802 0.020-0.812 0.028-1.626 0.028-2.442 0-56.464-45.936-102.4-102.4-102.4s-102.4 45.936-102.4 102.4 45.936 102.4 102.4 102.4c0.838 0 1.674-0.010 2.508-0.028 15.206-0.294 29.766 6.070 39.76 17.532 9.994 11.456 14.378 26.758 11.968 41.776-6.596 41.088 7.002 83.148 36.368 112.522l728.596 728.592 183.594-183.594-728.596-728.602zM1783.968 1395.574l-350.368-350.368-285.994 285.994 350.374 350.372c38.188 38.192 88.972 59.228 142.992 59.228 54.016 0 104.8-21.036 142.998-59.232s59.232-88.98 59.232-142.996-21.036-104.8-59.236-142.998z" />
<glyph unicode="&#xe629;" glyph-name="gradient" data-tags="gradient" d="M1894.4-102.4h-1740.8c-84.694 0-153.6 68.902-153.6 153.6v1740.8c0 84.694 68.906 153.6 153.6 153.6h1740.8c84.698 0 153.6-68.906 153.6-153.6v-1740.8c0-84.698-68.902-153.6-153.6-153.6zM153.6 1843.2c-28.23 0-51.2-22.97-51.2-51.2v-1740.8c0-28.23 22.97-51.2 51.2-51.2h1740.8c28.23 0 51.2 22.97 51.2 51.2v1740.8c0 28.23-22.97 51.2-51.2 51.2h-1740.8zM512 1689.6c0-28.276-22.924-51.2-51.2-51.2s-51.2 22.924-51.2 51.2c0 28.276 22.924 51.2 51.2 51.2s51.2-22.924 51.2-51.2zM512 1587.2c0-28.276-22.924-51.2-51.2-51.2s-51.2 22.924-51.2 51.2c0 28.276 22.924 51.2 51.2 51.2s51.2-22.924 51.2-51.2zM512 1484.8c0-28.276-22.924-51.2-51.2-51.2s-51.2 22.924-51.2 51.2c0 28.276 22.924 51.2 51.2 51.2s51.2-22.924 51.2-51.2zM512 1382.4c0-28.276-22.924-51.2-51.2-51.2s-51.2 22.924-51.2 51.2c0 28.276 22.924 51.2 51.2 51.2s51.2-22.924 51.2-51.2zM512 1280c0-28.276-22.924-51.2-51.2-51.2s-51.2 22.924-51.2 51.2c0 28.276 22.924 51.2 51.2 51.2s51.2-22.924 51.2-51.2zM512 1177.6c0-28.276-22.924-51.2-51.2-51.2s-51.2 22.924-51.2 51.2c0 28.276 22.924 51.2 51.2 51.2s51.2-22.924 51.2-51.2zM512 1075.2c0-28.276-22.924-51.2-51.2-51.2s-51.2 22.924-51.2 51.2c0 28.276 22.924 51.2 51.2 51.2s51.2-22.924 51.2-51.2zM512 972.8c0-28.276-22.924-51.2-51.2-51.2s-51.2 22.924-51.2 51.2c0 28.276 22.924 51.2 51.2 51.2s51.2-22.924 51.2-51.2zM512 870.4c0-28.276-22.924-51.2-51.2-51.2s-51.2 22.924-51.2 51.2c0 28.276 22.924 51.2 51.2 51.2s51.2-22.924 51.2-51.2zM512 768c0-28.276-22.924-51.2-51.2-51.2s-51.2 22.924-51.2 51.2c0 28.276 22.924 51.2 51.2 51.2s51.2-22.924 51.2-51.2zM512 665.6c0-28.276-22.924-51.2-51.2-51.2s-51.2 22.924-51.2 51.2c0 28.276 22.924 51.2 51.2 51.2s51.2-22.924 51.2-51.2zM512 563.2c0-28.276-22.924-51.2-51.2-51.2s-51.2 22.924-51.2 51.2c0 28.276 22.924 51.2 51.2 51.2s51.2-22.924 51.2-51.2zM512 460.8c0-28.276-22.924-51.2-51.2-51.2s-51.2 22.924-51.2 51.2c0 28.276 22.924 51.2 51.2 51.2s51.2-22.924 51.2-51.2zM512 358.4c0-28.276-22.924-51.2-51.2-51.2s-51.2 22.924-51.2 51.2c0 28.276 22.924 51.2 51.2 51.2s51.2-22.924 51.2-51.2zM512 256c0-28.276-22.924-51.2-51.2-51.2s-51.2 22.924-51.2 51.2c0 28.276 22.924 51.2 51.2 51.2s51.2-22.924 51.2-51.2zM614.4 1689.6c0-28.276-22.924-51.2-51.2-51.2s-51.2 22.924-51.2 51.2c0 28.276 22.924 51.2 51.2 51.2s51.2-22.924 51.2-51.2zM614.4 1484.8c0-28.276-22.924-51.2-51.2-51.2s-51.2 22.924-51.2 51.2c0 28.276 22.924 51.2 51.2 51.2s51.2-22.924 51.2-51.2zM614.4 1280c0-28.276-22.924-51.2-51.2-51.2s-51.2 22.924-51.2 51.2c0 28.276 22.924 51.2 51.2 51.2s51.2-22.924 51.2-51.2zM614.4 1075.2c0-28.276-22.924-51.2-51.2-51.2s-51.2 22.924-51.2 51.2c0 28.276 22.924 51.2 51.2 51.2s51.2-22.924 51.2-51.2zM614.4 870.4c0-28.276-22.924-51.2-51.2-51.2s-51.2 22.924-51.2 51.2c0 28.276 22.924 51.2 51.2 51.2s51.2-22.924 51.2-51.2zM614.4 665.6c0-28.276-22.924-51.2-51.2-51.2s-51.2 22.924-51.2 51.2c0 28.276 22.924 51.2 51.2 51.2s51.2-22.924 51.2-51.2zM614.4 460.8c0-28.276-22.924-51.2-51.2-51.2s-51.2 22.924-51.2 51.2c0 28.276 22.924 51.2 51.2 51.2s51.2-22.924 51.2-51.2zM614.4 256c0-28.276-22.924-51.2-51.2-51.2s-51.2 22.924-51.2 51.2c0 28.276 22.924 51.2 51.2 51.2s51.2-22.924 51.2-51.2zM716.8 1587.2c0-28.276-22.924-51.2-51.2-51.2s-51.2 22.924-51.2 51.2c0 28.276 22.924 51.2 51.2 51.2s51.2-22.924 51.2-51.2zM716.8 1382.4c0-28.276-22.924-51.2-51.2-51.2s-51.2 22.924-51.2 51.2c0 28.276 22.924 51.2 51.2 51.2s51.2-22.924 51.2-51.2zM716.8 1177.6c0-28.276-22.924-51.2-51.2-51.2s-51.2 22.924-51.2 51.2c0 28.276 22.924 51.2 51.2 51.2s51.2-22.924 51.2-51.2zM716.8 972.8c0-28.276-22.924-51.2-51.2-51.2s-51.2 22.924-51.2 51.2c0 28.276 22.924 51.2 51.2 51.2s51.2-22.924 51.2-51.2zM716.8 768c0-28.276-22.924-51.2-51.2-51.2s-51.2 22.924-51.2 51.2c0 28.276 22.924 51.2 51.2 51.2s51.2-22.924 51.2-51.2zM716.8 563.2c0-28.276-22.924-51.2-51.2-51.2s-51.2 22.924-51.2 51.2c0 28.276 22.924 51.2 51.2 51.2s51.2-22.924 51.2-51.2zM716.8 358.4c0-28.276-22.924-51.2-51.2-51.2s-51.2 22.924-51.2 51.2c0 28.276 22.924 51.2 51.2 51.2s51.2-22.924 51.2-51.2zM716.8 153.6c0-28.276-22.924-51.2-51.2-51.2s-51.2 22.924-51.2 51.2c0 28.276 22.924 51.2 51.2 51.2s51.2-22.924 51.2-51.2zM921.6 1689.6c0-28.276-22.924-51.2-51.2-51.2s-51.2 22.924-51.2 51.2c0 28.276 22.924 51.2 51.2 51.2s51.2-22.924 51.2-51.2zM921.6 1484.8c0-28.276-22.924-51.2-51.2-51.2s-51.2 22.924-51.2 51.2c0 28.276 22.924 51.2 51.2 51.2s51.2-22.924 51.2-51.2zM921.6 1280c0-28.276-22.924-51.2-51.2-51.2s-51.2 22.924-51.2 51.2c0 28.276 22.924 51.2 51.2 51.2s51.2-22.924 51.2-51.2zM921.6 1075.2c0-28.276-22.924-51.2-51.2-51.2s-51.2 22.924-51.2 51.2c0 28.276 22.924 51.2 51.2 51.2s51.2-22.924 51.2-51.2zM921.6 870.4c0-28.276-22.924-51.2-51.2-51.2s-51.2 22.924-51.2 51.2c0 28.276 22.924 51.2 51.2 51.2s51.2-22.924 51.2-51.2zM921.6 665.6c0-28.276-22.924-51.2-51.2-51.2s-51.2 22.924-51.2 51.2c0 28.276 22.924 51.2 51.2 51.2s51.2-22.924 51.2-51.2zM921.6 460.8c0-28.276-22.924-51.2-51.2-51.2s-51.2 22.924-51.2 51.2c0 28.276 22.924 51.2 51.2 51.2s51.2-22.924 51.2-51.2zM921.6 256c0-28.276-22.924-51.2-51.2-51.2s-51.2 22.924-51.2 51.2c0 28.276 22.924 51.2 51.2 51.2s51.2-22.924 51.2-51.2zM1126.4 1587.2c0-28.276-22.924-51.2-51.2-51.2s-51.2 22.924-51.2 51.2c0 28.276 22.924 51.2 51.2 51.2s51.2-22.924 51.2-51.2zM1126.4 1382.4c0-28.276-22.924-51.2-51.2-51.2s-51.2 22.924-51.2 51.2c0 28.276 22.924 51.2 51.2 51.2s51.2-22.924 51.2-51.2zM1126.4 1177.6c0-28.276-22.924-51.2-51.2-51.2s-51.2 22.924-51.2 51.2c0 28.276 22.924 51.2 51.2 51.2s51.2-22.924 51.2-51.2zM1126.4 972.8c0-28.276-22.924-51.2-51.2-51.2s-51.2 22.924-51.2 51.2c0 28.276 22.924 51.2 51.2 51.2s51.2-22.924 51.2-51.2zM1126.4 768c0-28.276-22.924-51.2-51.2-51.2s-51.2 22.924-51.2 51.2c0 28.276 22.924 51.2 51.2 51.2s51.2-22.924 51.2-51.2zM1126.4 563.2c0-28.276-22.924-51.2-51.2-51.2s-51.2 22.924-51.2 51.2c0 28.276 22.924 51.2 51.2 51.2s51.2-22.924 51.2-51.2zM1126.4 358.4c0-28.276-22.924-51.2-51.2-51.2s-51.2 22.924-51.2 51.2c0 28.276 22.924 51.2 51.2 51.2s51.2-22.924 51.2-51.2zM1126.4 153.6c0-28.276-22.924-51.2-51.2-51.2s-51.2 22.924-51.2 51.2c0 28.276 22.924 51.2 51.2 51.2s51.2-22.924 51.2-51.2zM512 153.6c0-28.276-22.924-51.2-51.2-51.2s-51.2 22.924-51.2 51.2c0 28.276 22.924 51.2 51.2 51.2s51.2-22.924 51.2-51.2zM409.6 1689.6c0-28.276-22.924-51.2-51.2-51.2s-51.2 22.924-51.2 51.2c0 28.276 22.924 51.2 51.2 51.2s51.2-22.924 51.2-51.2zM409.6 1587.2c0-28.276-22.924-51.2-51.2-51.2s-51.2 22.924-51.2 51.2c0 28.276 22.924 51.2 51.2 51.2s51.2-22.924 51.2-51.2zM409.6 1484.8c0-28.276-22.924-51.2-51.2-51.2s-51.2 22.924-51.2 51.2c0 28.276 22.924 51.2 51.2 51.2s51.2-22.924 51.2-51.2zM409.6 1382.4c0-28.276-22.924-51.2-51.2-51.2s-51.2 22.924-51.2 51.2c0 28.276 22.924 51.2 51.2 51.2s51.2-22.924 51.2-51.2zM409.6 1280c0-28.276-22.924-51.2-51.2-51.2s-51.2 22.924-51.2 51.2c0 28.276 22.924 51.2 51.2 51.2s51.2-22.924 51.2-51.2zM409.6 1177.6c0-28.276-22.924-51.2-51.2-51.2s-51.2 22.924-51.2 51.2c0 28.276 22.924 51.2 51.2 51.2s51.2-22.924 51.2-51.2zM409.6 1075.2c0-28.276-22.924-51.2-51.2-51.2s-51.2 22.924-51.2 51.2c0 28.276 22.924 51.2 51.2 51.2s51.2-22.924 51.2-51.2zM409.6 972.8c0-28.276-22.924-51.2-51.2-51.2s-51.2 22.924-51.2 51.2c0 28.276 22.924 51.2 51.2 51.2s51.2-22.924 51.2-51.2zM409.6 870.4c0-28.276-22.924-51.2-51.2-51.2s-51.2 22.924-51.2 51.2c0 28.276 22.924 51.2 51.2 51.2s51.2-22.924 51.2-51.2zM409.6 768c0-28.276-22.924-51.2-51.2-51.2s-51.2 22.924-51.2 51.2c0 28.276 22.924 51.2 51.2 51.2s51.2-22.924 51.2-51.2zM409.6 665.6c0-28.276-22.924-51.2-51.2-51.2s-51.2 22.924-51.2 51.2c0 28.276 22.924 51.2 51.2 51.2s51.2-22.924 51.2-51.2zM409.6 563.2c0-28.276-22.924-51.2-51.2-51.2s-51.2 22.924-51.2 51.2c0 28.276 22.924 51.2 51.2 51.2s51.2-22.924 51.2-51.2zM409.6 460.8c0-28.276-22.924-51.2-51.2-51.2s-51.2 22.924-51.2 51.2c0 28.276 22.924 51.2 51.2 51.2s51.2-22.924 51.2-51.2zM409.6 358.4c0-28.276-22.924-51.2-51.2-51.2s-51.2 22.924-51.2 51.2c0 28.276 22.924 51.2 51.2 51.2s51.2-22.924 51.2-51.2zM409.6 256c0-28.276-22.924-51.2-51.2-51.2s-51.2 22.924-51.2 51.2c0 28.276 22.924 51.2 51.2 51.2s51.2-22.924 51.2-51.2zM409.6 153.6c0-28.276-22.924-51.2-51.2-51.2s-51.2 22.924-51.2 51.2c0 28.276 22.924 51.2 51.2 51.2s51.2-22.924 51.2-51.2zM1331.2 1689.6c0-28.276-22.924-51.2-51.2-51.2s-51.2 22.924-51.2 51.2c0 28.276 22.924 51.2 51.2 51.2s51.2-22.924 51.2-51.2zM1331.2 1280c0-28.276-22.924-51.2-51.2-51.2s-51.2 22.924-51.2 51.2c0 28.276 22.924 51.2 51.2 51.2s51.2-22.924 51.2-51.2zM1331.2 870.4c0-28.276-22.924-51.2-51.2-51.2s-51.2 22.924-51.2 51.2c0 28.276 22.924 51.2 51.2 51.2s51.2-22.924 51.2-51.2zM1331.2 460.8c0-28.276-22.924-51.2-51.2-51.2s-51.2 22.924-51.2 51.2c0 28.276 22.924 51.2 51.2 51.2s51.2-22.924 51.2-51.2zM1536 1484.8c0-28.276-22.924-51.2-51.2-51.2s-51.2 22.924-51.2 51.2c0 28.276 22.924 51.2 51.2 51.2s51.2-22.924 51.2-51.2zM1536 1075.2c0-28.276-22.924-51.2-51.2-51.2s-51.2 22.924-51.2 51.2c0 28.276 22.924 51.2 51.2 51.2s51.2-22.924 51.2-51.2zM1536 665.6c0-28.276-22.924-51.2-51.2-51.2s-51.2 22.924-51.2 51.2c0 28.276 22.924 51.2 51.2 51.2s51.2-22.924 51.2-51.2zM1536 256c0-28.276-22.924-51.2-51.2-51.2s-51.2 22.924-51.2 51.2c0 28.276 22.924 51.2 51.2 51.2s51.2-22.924 51.2-51.2zM256 102.4c-28.276 0-51.2 22.922-51.2 51.2v1536c0 28.276 22.924 51.2 51.2 51.2s51.2-22.924 51.2-51.2v-1536c0-28.278-22.924-51.2-51.2-51.2z" />
<glyph unicode="&#xe62b;" glyph-name="magic-wand" data-tags="magic-wand, tool, wizard" d="M1177.6 1228.8c-28.278 0-51.2 22.924-51.2 51.2 0 141.158-114.842 256-256 256-28.276 0-51.2 22.924-51.2 51.2s22.924 51.2 51.2 51.2c141.158 0 256 114.842 256 256 0 28.276 22.922 51.2 51.2 51.2s51.2-22.924 51.2-51.2c0-141.158 114.842-256 256-256 28.278 0 51.2-22.924 51.2-51.2s-22.922-51.2-51.2-51.2c-141.158 0-256-114.842-256-256 0-28.276-22.922-51.2-51.2-51.2zM1054.852 1587.2c50.22-30.272 92.476-72.528 122.748-122.752 30.272 50.224 72.528 92.48 122.752 122.752-50.224 30.272-92.48 72.528-122.752 122.752-30.272-50.224-72.528-92.48-122.748-122.752zM153.6 921.6c-28.276 0-51.2 22.924-51.2 51.2 0 28.23-22.97 51.2-51.2 51.2-28.276 0-51.2 22.924-51.2 51.2s22.924 51.2 51.2 51.2c28.23 0 51.2 22.97 51.2 51.2 0 28.276 22.924 51.2 51.2 51.2s51.2-22.924 51.2-51.2c0-28.23 22.97-51.2 51.2-51.2 28.276 0 51.2-22.924 51.2-51.2s-22.924-51.2-51.2-51.2c-28.23 0-51.2-22.97-51.2-51.2 0-28.276-22.924-51.2-51.2-51.2zM1858.202 313.408l-1083.99 1083.988c-28.932 28.932-67.504 44.864-108.612 44.864s-79.68-15.932-108.612-44.864l-59.984-59.984c-28.932-28.932-44.864-67.504-44.864-108.612s15.932-79.68 44.864-108.612l1083.988-1083.984c28.928-28.932 67.5-44.868 108.608-44.868s79.68 15.93 108.612 44.868l59.988 59.984c28.932 28.928 44.864 67.504 44.864 108.608s-15.93 79.684-44.86 108.612zM569.412 1265.004l59.984 59.984c9.59 9.59 22.448 14.87 36.204 14.87s26.614-5.28 36.204-14.87l147.382-147.386-132.394-132.394-147.382 147.382c-19.964 19.968-19.964 52.448 0 72.412zM1785.788 168.596l-59.988-59.984c-9.588-9.588-22.448-14.868-36.198-14.868s-26.612 5.28-36.198 14.868l-864.204 864.198 132.394 132.39 864.196-864.198c19.962-19.962 19.962-52.444 0-72.406zM358.4 1433.6c-28.276 0-51.2 22.924-51.2 51.2 0 84.694-68.906 153.6-153.6 153.6-28.276 0-51.2 22.924-51.2 51.2s22.924 51.2 51.2 51.2c84.694 0 153.6 68.906 153.6 153.6 0 28.276 22.924 51.2 51.2 51.2s51.2-22.924 51.2-51.2c0-84.694 68.906-153.6 153.6-153.6 28.276 0 51.2-22.924 51.2-51.2s-22.924-51.2-51.2-51.2c-84.694 0-153.6-68.906-153.6-153.6 0-28.276-22.924-51.2-51.2-51.2zM307.040 1689.6c19.45-14.608 36.752-31.914 51.36-51.36 14.608 19.45 31.914 36.752 51.36 51.36-19.45 14.608-36.752 31.914-51.36 51.36-14.608-19.446-31.914-36.752-51.36-51.36zM358.4 409.6c-28.276 0-51.2 22.922-51.2 51.2 0 84.694-68.906 153.6-153.6 153.6-28.276 0-51.2 22.922-51.2 51.2s22.924 51.2 51.2 51.2c84.694 0 153.6 68.906 153.6 153.6 0 28.278 22.924 51.2 51.2 51.2s51.2-22.922 51.2-51.2c0-84.694 68.906-153.6 153.6-153.6 28.276 0 51.2-22.922 51.2-51.2s-22.924-51.2-51.2-51.2c-84.694 0-153.6-68.906-153.6-153.6 0-28.278-22.924-51.2-51.2-51.2zM307.040 665.6c19.45-14.604 36.752-31.914 51.36-51.36 14.608 19.446 31.914 36.748 51.36 51.36-19.45 14.604-36.752 31.914-51.36 51.36-14.608-19.446-31.914-36.756-51.36-51.36z" />
<glyph unicode="&#xe64c;" glyph-name="cloud-download" data-tags="cloud-download, cloud" d="M1316.198 548.198c-19.99 19.994-52.412 19.994-72.406 0l-117.392-117.388v439.59c0 28.278-22.922 51.2-51.2 51.2s-51.2-22.922-51.2-51.2v-439.59l-117.396 117.398c-19.996 19.99-52.412 19.99-72.41 0-19.994-19.994-19.994-52.416 0-72.41l204.8-204.8c10-9.996 23.104-14.998 36.204-14.998s26.204 4.998 36.198 15.002l204.8 204.8c20 19.99 20 52.406 0 72.396zM1639.040 307.2h-256.64c-28.278 0-51.2 22.922-51.2 51.2s22.922 51.2 51.2 51.2h256.64c169.036 0 306.56 137.524 306.56 306.56s-137.524 306.56-306.56 306.56c-36.256 0-71.588-6.202-105.014-18.444-22.332-8.176-47.354 0.1-60.404 19.978s-10.698 46.128 5.684 63.37c36.56 38.47 56.694 88.614 56.694 141.178 0 112.928-91.872 204.8-204.8 204.8-65.716 0-125.824-30.374-164.912-83.334-23.596-31.972-37.338-69.412-39.734-108.276-1.34-21.7-16.234-40.186-37.148-46.108-20.924-5.932-43.296 2.012-55.812 19.782-11.264 15.996-23.46 31.404-36.252 45.808-97.174 109.388-236.748 172.128-382.94 172.128-282.316 0-512-229.68-512-512s229.684-512 512-512h153.6c28.276 0 51.2-22.922 51.2-51.2s-22.924-51.2-51.2-51.2h-153.6c-338.78 0-614.4 275.62-614.4 614.4s275.62 614.4 614.4 614.4c164.068 0 321.178-65.834 436.208-181.732 8.966 19.894 20.096 38.938 33.286 56.806 57.74 78.224 150.186 124.924 247.306 124.924 169.392 0 307.2-137.808 307.2-307.2 0-35.914-6.236-71.046-18.192-104.102 6.252 0.284 12.534 0.422 18.832 0.422 225.5 0 408.96-183.46 408.96-408.96s-183.46-408.96-408.96-408.96z" />
<glyph unicode="&#xe672;" glyph-name="cog" data-tags="cog, gear, preferences, settings, generate, control, options" d="M781.42-71.91c-4.218 0-8.496 0.524-12.756 1.62-91.952 23.606-180.298 60.084-262.582 108.42-23.846 14.006-32.26 44.42-19.002 68.688 16.3 29.85 24.918 63.732 24.918 97.984 0 112.928-91.872 204.8-204.8 204.8-34.25 0-68.132-8.618-97.984-24.918-24.266-13.254-54.678-4.842-68.684 19.002-48.34 82.284-84.816 170.63-108.422 262.586-6.666 25.978 7.84 52.698 33.258 61.258 83.398 28.074 139.434 106.068 139.434 194.074s-56.036 166-139.436 194.080c-25.414 8.556-39.924 35.276-33.254 61.254 23.606 91.952 60.084 180.298 108.422 262.582 14.006 23.846 44.42 32.26 68.688 19.002 29.846-16.3 63.728-24.918 97.98-24.918 112.928 0 204.8 91.872 204.8 204.8 0 34.252-8.618 68.134-24.918 97.98-13.258 24.268-4.844 54.682 19.002 68.688 82.282 48.336 170.628 84.816 262.582 108.422 25.988 6.668 52.698-7.84 61.254-33.254 28.080-83.402 106.074-139.436 194.080-139.436s166 56.036 194.076 139.434c8.56 25.42 35.29 39.93 61.258 33.258 91.952-23.604 180.3-60.084 262.586-108.422 23.844-14.006 32.256-44.416 19.002-68.684-16.304-29.852-24.922-63.734-24.922-97.984 0-112.928 91.872-204.8 204.8-204.8 34.252 0 68.134 8.618 97.984 24.918 24.276 13.258 54.682 4.842 68.688-19.002 48.332-82.282 84.812-170.628 108.42-262.582 6.668-25.978-7.836-52.698-33.254-61.254-83.402-28.080-139.436-106.074-139.436-194.080s56.036-166 139.436-194.076c25.414-8.56 39.924-35.276 33.254-61.258-23.606-91.952-60.084-180.3-108.42-262.582-14.010-23.85-44.416-32.256-68.688-19.004-29.852 16.304-63.734 24.922-97.984 24.922-112.928 0-204.8-91.872-204.8-204.8 0-34.25 8.618-68.132 24.922-97.984 13.254-24.272 4.842-54.682-19.004-68.688-82.282-48.332-170.628-84.812-262.582-108.42-25.984-6.672-52.698 7.836-61.258 33.254-28.076 83.402-106.070 139.436-194.076 139.436s-166-56.036-194.080-139.436c-7.156-21.248-27.004-34.874-48.5-34.874zM1024 204.8c115.43 0 219.386-64.276 271.834-164.058 53.274 16.436 105.014 37.75 154.598 63.692-11.082 32.154-16.832 66.15-16.832 100.364 0 169.392 137.808 307.2 307.2 307.2 34.214 0 68.212-5.75 100.362-16.836 25.942 49.584 47.26 101.324 63.692 154.598-99.78 52.452-164.054 156.406-164.054 271.836s64.276 219.382 164.058 271.836c-16.436 53.274-37.75 105.012-63.692 154.598-32.154-11.084-66.148-16.836-100.364-16.836-169.392 0-307.2 137.808-307.2 307.2 0 34.214 5.75 68.212 16.836 100.362-49.584 25.942-101.324 47.26-154.598 63.692-52.452-99.78-156.406-164.054-271.836-164.054s-219.382 64.276-271.834 164.054c-53.274-16.432-105.014-37.748-154.598-63.692 11.084-32.15 16.832-66.144 16.832-100.362 0-169.392-137.808-307.2-307.2-307.2-34.218 0-68.212 5.748-100.362 16.836-25.946-49.588-47.26-101.324-63.692-154.598 99.78-52.454 164.054-156.406 164.054-271.836s-64.276-219.386-164.054-271.834c16.432-53.274 37.75-105.014 63.692-154.598 32.15 11.082 66.148 16.832 100.362 16.832 169.392 0 307.2-137.808 307.2-307.2 0-34.218-5.75-68.212-16.836-100.362 49.588-25.942 101.324-47.26 154.598-63.692 52.454 99.78 156.406 164.054 271.836 164.054zM1024 614.4c-169.392 0-307.2 137.808-307.2 307.2s137.808 307.2 307.2 307.2 307.2-137.808 307.2-307.2-137.808-307.2-307.2-307.2zM1024 1126.4c-112.928 0-204.8-91.872-204.8-204.8s91.872-204.8 204.8-204.8c112.928 0 204.8 91.872 204.8 204.8s-91.872 204.8-204.8 204.8z" />
<glyph unicode="&#xe681;" glyph-name="trash2" data-tags="trash, bin, remove, waste" d="M1587.2 1740.8h-358.4v51.2c0 84.694-68.906 153.6-153.6 153.6h-204.8c-84.694 0-153.6-68.906-153.6-153.6v-51.2h-358.4c-84.694 0-153.6-68.906-153.6-153.6v-102.4c0-66.746 42.806-123.658 102.4-144.794v-1288.806c0-84.698 68.906-153.6 153.6-153.6h1024c84.698 0 153.6 68.902 153.6 153.6v1288.806c59.594 21.136 102.4 78.048 102.4 144.794v102.4c0 84.694-68.902 153.6-153.6 153.6zM819.2 1792c0 28.23 22.97 51.2 51.2 51.2h204.8c28.23 0 51.2-22.97 51.2-51.2v-51.2h-307.2v51.2zM1484.8 0h-1024c-28.23 0-51.2 22.97-51.2 51.2v1280h1126.4v-1280c0-28.23-22.97-51.2-51.2-51.2zM1638.4 1484.8c0-28.23-22.97-51.2-51.2-51.2h-1228.8c-28.23 0-51.2 22.97-51.2 51.2v102.4c0 28.23 22.97 51.2 51.2 51.2h1228.8c28.23 0 51.2-22.97 51.2-51.2v-102.4zM1280 1228.8c-28.278 0-51.2-22.924-51.2-51.2v-1024c0-28.278 22.922-51.2 51.2-51.2s51.2 22.922 51.2 51.2v1024c0 28.276-22.922 51.2-51.2 51.2zM972.8 1228.8c-28.276 0-51.2-22.924-51.2-51.2v-1024c0-28.278 22.924-51.2 51.2-51.2s51.2 22.922 51.2 51.2v1024c0 28.276-22.924 51.2-51.2 51.2zM665.6 1228.8c-28.276 0-51.2-22.924-51.2-51.2v-1024c0-28.278 22.924-51.2 51.2-51.2s51.2 22.922 51.2 51.2v1024c0 28.276-22.924 51.2-51.2 51.2z" />
<glyph unicode="&#xe682;" glyph-name="trash3" data-tags="trash, bin, remove, waste" d="M1177.6 1638.4c-28.278 0-51.2 22.924-51.2 51.2v102.4c0 28.23-22.97 51.2-51.2 51.2h-204.8c-28.23 0-51.2-22.97-51.2-51.2v-102.4c0-28.276-22.924-51.2-51.2-51.2s-51.2 22.924-51.2 51.2v102.4c0 84.694 68.906 153.6 153.6 153.6h204.8c84.694 0 153.6-68.906 153.6-153.6v-102.4c0-28.276-22.922-51.2-51.2-51.2zM1793.024 1670.188c-28.832 33.504-70.598 62.218-124.14 85.348-90.14 38.938-216.060 64.204-384.948 77.242-28.196 2.186-52.812-18.916-54.988-47.108-2.18-28.196 18.912-52.812 47.108-54.988 155.238-11.98 273.74-35.248 352.22-69.146 17.18-7.42 31.722-15.002 44.108-22.63-119.468-54.838-373.408-102.906-699.584-102.906-329.062 0-582.24 48.108-700.876 103.338 12.63 7.834 27.548 15.61 45.274 23.21 78.32 33.588 196.842 56.586 352.268 68.352 28.198 2.134 49.324 26.724 47.188 54.918-2.134 28.196-26.71 49.338-54.918 47.188-169.040-12.8-294.94-37.772-384.896-76.348-53.574-22.972-95.364-51.564-124.212-84.976-33.328-38.598-50.228-83.716-50.228-134.096v-257.584c0-50.090 34.368-93.808 102.4-130.78v-995.62c0-31.418 13.684-78.112 78.87-122.144 40.586-27.414 97.178-51.606 168.208-71.904 139.834-39.948 324.832-61.952 520.922-61.952 196.086 0 381.088 22.004 520.918 61.952 71.030 20.298 127.626 44.486 168.212 71.904 65.188 44.032 78.87 90.726 78.87 122.144v995.622c68.036 36.97 102.4 80.688 102.4 130.778v256c0 50.356-16.88 95.5-50.176 134.188zM1638.4 153.6c0-11.988-31.748-55.28-172.812-95.588-130.938-37.412-305.946-58.012-492.788-58.012s-361.85 20.602-492.79 58.012c-141.062 40.308-172.81 83.6-172.81 95.588v953.014c22.778-7.42 47.38-14.468 73.92-21.1 158.672-39.668 368.8-61.514 591.68-61.514s433.008 21.846 591.676 61.514c26.544 6.636 51.142 13.68 73.924 21.1v-953.014zM1740.8 1280c0-2.63-6.656-16.39-39.228-35.642-36.486-21.564-92.476-42.14-161.93-59.504-150.78-37.692-352.090-58.454-566.842-58.454s-416.060 20.762-566.844 58.458c-69.45 17.36-125.444 37.936-161.93 59.504-32.566 19.248-39.226 33.008-39.226 35.638v257.584c0 6.198 0.412 12.956 1.754 20.134 75.044-39.942 178.844-65.852 261.012-81.484 146.58-27.892 321.29-42.634 505.236-42.634 333.924 0 622.598 47.676 765.964 123.942 1.548-7.7 2.036-14.944 2.036-21.542v-256zM1484.8 163.884c-28.278 0-51.2 22.922-51.2 51.2v716.804c0 28.276 22.922 51.2 51.2 51.2s51.2-22.924 51.2-51.2v-716.804c0-28.278-22.922-51.2-51.2-51.2zM1280 122.118c-28.278 0-51.2 22.922-51.2 51.2v716.794c0 28.278 22.922 51.2 51.2 51.2s51.2-22.922 51.2-51.2v-716.794c0-28.278-22.922-51.2-51.2-51.2zM1075.2 102.4c-28.278 0-51.2 22.922-51.2 51.2v716.8c0 28.278 22.922 51.2 51.2 51.2s51.2-22.922 51.2-51.2v-716.8c0-28.278-22.922-51.2-51.2-51.2zM870.4 102.4c-28.276 0-51.2 22.922-51.2 51.2v716.8c0 28.278 22.924 51.2 51.2 51.2s51.2-22.922 51.2-51.2v-716.8c0-28.278-22.924-51.2-51.2-51.2zM665.58 122.118c-0.004 0 0 0-0.006 0-28.276 0.004-51.196 22.928-51.194 51.206l0.076 716.794c0.004 28.272 22.928 51.194 51.2 51.194 0.004 0 0 0 0.004 0 28.278-0.004 51.2-22.928 51.196-51.206l-0.076-716.794c-0.004-28.272-22.928-51.194-51.2-51.194zM460.772 163.884c-0.004 0 0 0 0 0-28.278 0-51.2 22.924-51.2 51.204l0.028 716.8c0 28.276 22.924 51.2 51.2 51.2 0 0 0 0 0 0 28.278 0 51.2-22.924 51.2-51.2l-0.028-716.804c-0.004-28.278-22.924-51.2-51.2-51.2z" />
<glyph unicode="&#xe68d;" glyph-name="star" data-tags="star, rating, favorite" d="M1587.196 0c-8.41 0-16.844 2.068-24.516 6.252l-538.682 293.824-538.682-293.824c-17.196-9.382-38.236-8.122-54.196 3.226-15.962 11.354-24.044 30.82-20.826 50.138l98.068 588.412-390.966 390.97c-13.562 13.562-18.406 33.564-12.554 51.828s21.424 31.724 40.34 34.876l588.682 98.116 244.34 488.678c8.672 17.348 26.4 28.304 45.796 28.304s37.124-10.956 45.796-28.304l244.34-488.678 588.682-98.116c18.918-3.152 34.486-16.614 40.34-34.876s1.008-38.266-12.554-51.828l-390.966-390.97 98.068-588.412c3.22-19.318-4.868-38.784-20.826-50.138-8.838-6.288-19.242-9.478-29.68-9.478zM1024 409.6c8.438 0 16.874-2.084 24.518-6.252l470.89-256.852-85.114 510.688c-2.72 16.31 2.604 32.928 14.3 44.618l339.252 339.252-516.262 86.044c-16.16 2.692-30.054 12.954-37.38 27.606l-210.204 420.41-210.204-420.41c-7.328-14.652-21.22-24.916-37.38-27.606l-516.262-86.044 339.248-339.252c11.692-11.69 17.018-28.31 14.3-44.618l-85.114-510.688 470.892 256.852c7.642 4.17 16.080 6.252 24.518 6.252z" />
<glyph unicode="&#xe6ac;" glyph-name="hdd-down" data-tags="hdd-down, hdd, download, storage, hard-disk" d="M1792-102.4h-1638.4c-84.694 0-153.6 68.902-153.6 153.6v307.2c0 64.198 22.49 159.466 51.2 216.886l215.61 431.22c33.616 67.232 118.826 119.894 193.99 119.894 28.276 0 51.2-22.924 51.2-51.2s-22.924-51.2-51.2-51.2c-37.030 0-85.84-30.166-102.4-63.286l-215.61-431.22c-21.516-43.034-40.39-122.986-40.39-171.094v-307.2c0-28.23 22.97-51.2 51.2-51.2h1638.4c28.23 0 51.2 22.97 51.2 51.2v307.2c0 48.112-18.87 128.064-40.388 171.094l-215.612 431.22c-16.564 33.12-65.37 63.286-102.4 63.286-28.278 0-51.2 22.924-51.2 51.2s22.922 51.2 51.2 51.2c75.162 0 160.372-52.662 193.988-119.892l215.612-431.222c28.71-57.418 51.2-152.688 51.2-216.886v-307.2c0-84.698-68.902-153.6-153.6-153.6zM1689.6 102.4h-102.4c-28.278 0-51.2 22.922-51.2 51.2s22.922 51.2 51.2 51.2h102.4c28.278 0 51.2-22.922 51.2-51.2s-22.922-51.2-51.2-51.2zM1689.6 307.2h-1433.6c-28.276 0-51.2 22.922-51.2 51.2s22.924 51.2 51.2 51.2h1433.6c28.278 0 51.2-22.922 51.2-51.2s-22.922-51.2-51.2-51.2zM1316.202 1162.602c-19.994 19.996-52.412 19.996-72.406 0l-219.796-219.796v849.194c0 28.276-22.924 51.2-51.2 51.2s-51.2-22.924-51.2-51.2v-849.194l-219.798 219.798c-19.994 19.996-52.412 19.996-72.406 0-19.996-19.994-19.996-52.412 0-72.406l307.2-307.2c10-10 23.1-14.998 36.204-14.998s26.204 4.998 36.202 14.998l307.2 307.2c19.996 19.994 19.996 52.41 0 72.404z" />
<glyph unicode="&#xe6ad;" glyph-name="hdd-up" data-tags="hdd-up, hdd, upload, storage, hard-disk" d="M1792-102.4h-1638.4c-84.694 0-153.6 68.902-153.6 153.6v307.2c0 64.198 22.49 159.466 51.2 216.886l215.61 431.22c33.616 67.232 118.826 119.894 193.99 119.894h307.2c28.276 0 51.2-22.924 51.2-51.2s-22.924-51.2-51.2-51.2h-307.2c-37.030 0-85.84-30.166-102.4-63.286l-215.61-431.22c-21.516-43.034-40.39-122.986-40.39-171.094v-307.2c0-28.23 22.97-51.2 51.2-51.2h1638.4c28.23 0 51.2 22.97 51.2 51.2v307.2c0 48.112-18.87 128.064-40.388 171.094l-215.612 431.22c-16.564 33.12-65.37 63.286-102.4 63.286h-307.2c-28.278 0-51.2 22.924-51.2 51.2s22.922 51.2 51.2 51.2h307.2c75.162 0 160.372-52.662 193.988-119.892l215.612-431.222c28.71-57.418 51.2-152.688 51.2-216.886v-307.2c0-84.698-68.902-153.6-153.6-153.6zM1689.6 102.4h-102.4c-28.278 0-51.2 22.922-51.2 51.2s22.922 51.2 51.2 51.2h102.4c28.278 0 51.2-22.922 51.2-51.2s-22.922-51.2-51.2-51.2zM1689.6 307.2h-1433.6c-28.276 0-51.2 22.922-51.2 51.2s22.924 51.2 51.2 51.2h1433.6c28.278 0 51.2-22.922 51.2-51.2s-22.922-51.2-51.2-51.2zM1316.202 1469.802l-307.2 307.2c-19.994 19.996-52.412 19.996-72.406 0l-307.2-307.2c-19.996-19.994-19.996-52.412 0-72.406 19.994-19.996 52.412-19.996 72.406 0l219.798 219.798v-849.194c0-28.278 22.924-51.2 51.2-51.2s51.2 22.922 51.2 51.2v849.194l219.798-219.796c9.996-10 23.098-14.998 36.202-14.998s26.204 4.998 36.202 14.998c19.996 19.994 19.996 52.41 0 72.404z" />
<glyph unicode="&#xe6ae;" glyph-name="floppy-disk" data-tags="floppy-disk, storage, save, disc" d="M1382.4 1331.2h-204.8c-28.278 0-51.2 22.924-51.2 51.2v307.2c0 28.276 22.922 51.2 51.2 51.2h204.8c28.278 0 51.2-22.924 51.2-51.2v-307.2c0-28.276-22.922-51.2-51.2-51.2zM1228.8 1433.6h102.4v204.8h-102.4v-204.8zM2033.002 1674.604l-256 256c-9.6 9.6-22.624 14.996-36.202 14.996h-1689.6c-28.276 0-51.2-22.924-51.2-51.2v-1945.6c0-28.278 22.924-51.2 51.2-51.2h1945.6c28.278 0 51.2 22.922 51.2 51.2v1689.6c0 13.58-5.396 26.602-14.998 36.204zM614.4 1843.2h921.6v-614.4h-921.6v614.4zM1638.4 0h-1228.8v819.2h1228.8v-819.2zM1945.6 0h-204.8v870.4c0 28.278-22.922 51.2-51.2 51.2h-1331.2c-28.276 0-51.2-22.922-51.2-51.2v-870.4h-204.8v1843.2h409.6v-665.6c0-28.276 22.924-51.2 51.2-51.2h1024c28.278 0 51.2 22.924 51.2 51.2v665.6h81.19l226.010-226.006v-1617.194z" />
<glyph unicode="&#xe6b8;" glyph-name="copy" data-tags="copy, files, papers" d="M1689.6 1536h-256v256c0 84.694-68.902 153.6-153.6 153.6h-768c-13.58 0-26.602-5.396-36.202-14.998l-358.4-358.4c-9.604-9.6-14.998-22.624-14.998-36.202v-1075.2c0-84.698 68.906-153.6 153.6-153.6h256v-256c0-84.698 68.906-153.6 153.6-153.6h1024c84.698 0 153.6 68.902 153.6 153.6v1331.2c0 84.694-68.902 153.6-153.6 153.6zM512 1821.994v-234.794c0-28.23-22.97-51.2-51.2-51.2h-234.794l285.994 285.994zM256 409.6c-28.23 0-51.2 22.97-51.2 51.2v972.8h256c84.694 0 153.6 68.906 153.6 153.6v256h665.6c28.23 0 51.2-22.97 51.2-51.2v-256h-409.6c-13.58 0-26.602-5.396-36.202-14.998l-358.4-358.4c-9.604-9.6-14.998-22.624-14.998-36.202v-716.8h-256zM921.6 1412.394v-234.794c0-28.23-22.97-51.2-51.2-51.2h-234.794l285.994 285.994zM1740.8 51.2c0-28.23-22.97-51.2-51.2-51.2h-1024c-28.23 0-51.2 22.97-51.2 51.2v972.8h256c84.694 0 153.6 68.906 153.6 153.6v256h665.6c28.23 0 51.2-22.97 51.2-51.2v-1331.2z" />
<glyph unicode="&#xe6dc;" glyph-name="license2" data-tags="license, certificate" d="M1894.4 102.4h-1740.8c-84.694 0-153.6 68.902-153.6 153.6v1331.2c0 84.694 68.906 153.6 153.6 153.6h1740.8c84.698 0 153.6-68.906 153.6-153.6v-1331.2c0-84.698-68.902-153.6-153.6-153.6zM153.6 1638.4c-28.23 0-51.2-22.97-51.2-51.2v-1331.2c0-28.23 22.97-51.2 51.2-51.2h1740.8c28.23 0 51.2 22.97 51.2 51.2v1331.2c0 28.23-22.97 51.2-51.2 51.2h-1740.8zM972.8 1331.2h-614.4c-28.276 0-51.2 22.924-51.2 51.2s22.924 51.2 51.2 51.2h614.4c28.276 0 51.2-22.924 51.2-51.2s-22.924-51.2-51.2-51.2zM972.8 1024h-614.4c-28.276 0-51.2 22.922-51.2 51.2s22.924 51.2 51.2 51.2h614.4c28.276 0 51.2-22.922 51.2-51.2s-22.924-51.2-51.2-51.2zM972.8 819.2h-614.4c-28.276 0-51.2 22.922-51.2 51.2s22.924 51.2 51.2 51.2h614.4c28.276 0 51.2-22.922 51.2-51.2s-22.924-51.2-51.2-51.2zM972.8 614.4h-614.4c-28.276 0-51.2 22.922-51.2 51.2s22.924 51.2 51.2 51.2h614.4c28.276 0 51.2-22.922 51.2-51.2s-22.924-51.2-51.2-51.2zM870.4 409.6h-512c-28.276 0-51.2 22.922-51.2 51.2s22.924 51.2 51.2 51.2h512c28.276 0 51.2-22.922 51.2-51.2s-22.924-51.2-51.2-51.2zM1837.354 1275.514l-83.292 60.516-31.818 97.914h-102.95l-83.292 60.516-83.29-60.516h-102.95l-31.818-97.914-83.292-60.516 31.818-97.914-31.818-97.914 83.292-60.518 13.504-41.548c-0.154-1.588-0.246-3.194-0.246-4.82v-512c0-20.71 12.474-39.38 31.606-47.302 19.136-7.93 41.156-3.54 55.798 11.1l117.396 117.396 117.398-117.398c9.796-9.798 22.886-15.002 36.214-14.998 6.596 0 13.248 1.274 19.58 3.898 19.132 7.926 31.606 26.596 31.606 47.306v512c0 1.626-0.092 3.232-0.244 4.82l13.504 41.548 83.292 60.518-31.82 97.914 31.82 97.914zM1355.028 1236.4l50.020 36.34 19.108 58.8h61.824l50.022 36.346 50.022-36.342h61.824l19.108-58.8 50.020-36.34-19.108-58.804 19.108-58.8-50.020-36.342-19.108-58.8h-61.824l-50.022-36.346-50.022 36.342h-61.824l-19.108 58.8-50.020 36.342 19.108 58.804-19.108 58.8zM1572.202 650.602c-19.994 19.994-52.412 19.994-72.406 0l-66.196-66.196v336.852h19.11l83.29-60.516 83.29 60.512h19.11v-336.852l-66.198 66.198z" />
<glyph unicode="&#xe6f8;" glyph-name="film-play" data-tags="film-play, video, movie" d="M767.994 409.6c-7.804 0-15.644 1.782-22.89 5.404-17.348 8.672-28.304 26.4-28.304 45.796v921.6c0 19.396 10.956 37.124 28.304 45.796 17.34 8.668 38.102 6.8 53.616-4.836l614.4-460.8c12.892-9.668 20.48-24.844 20.48-40.96s-7.588-31.29-20.48-40.96l-614.4-460.8c-9.034-6.774-19.846-10.24-30.726-10.24zM819.2 1280v-716.8l477.866 358.4-477.866 358.4zM1996.8 1740.8h-1945.6c-28.276 0-51.2-22.924-51.2-51.2v-1536c0-28.278 22.924-51.2 51.2-51.2h1945.6c28.278 0 51.2 22.922 51.2 51.2v1536c0 28.276-22.922 51.2-51.2 51.2zM307.2 819.2h-204.8v204.8h204.8v-204.8zM307.2 1126.4h-204.8v204.8h204.8v-204.8zM102.4 716.8h204.8v-204.8h-204.8v204.8zM409.6 1638.4h1228.8v-1433.6h-1228.8v1433.6zM1740.8 1024h204.8v-204.8h-204.8v204.8zM1740.8 1126.4v204.8h204.8v-204.8h-204.8zM1740.8 716.8h204.8v-204.8h-204.8v204.8zM1945.6 1433.6h-204.8v204.8h204.8v-204.8zM307.2 1638.4v-204.8h-204.8v204.8h204.8zM102.4 409.6h204.8v-204.8h-204.8v204.8zM1740.8 204.8v204.8h204.8v-204.8h-204.8z" />
<glyph unicode="&#xe70e;" glyph-name="picture" data-tags="picture, photo" d="M1382.4 1024c-141.158 0-256 114.842-256 256s114.842 256 256 256 256-114.842 256-256-114.842-256-256-256zM1382.4 1433.6c-84.694 0-153.6-68.906-153.6-153.6s68.906-153.6 153.6-153.6 153.6 68.906 153.6 153.6-68.906 153.6-153.6 153.6zM1894.4 1945.6h-1740.8c-84.694 0-153.6-68.906-153.6-153.6v-1740.8c0-84.698 68.906-153.6 153.6-153.6h1740.8c84.698 0 153.6 68.902 153.6 153.6v1740.8c0 84.694-68.902 153.6-153.6 153.6zM102.4 51.2v492.204l429.804 472.784c8.666 9.532 20.102 14.868 32.202 15.020 12.044 0.058 23.67-4.886 32.576-14.198l972.794-1017.012h-1416.176c-28.23 0-51.2 22.97-51.2 51.2zM1945.6 51.2c0-28.23-22.97-51.2-51.2-51.2h-182.922l-1040.5 1087.792c-28.752 30.058-67.068 46.292-107.872 45.808-40.81-0.518-78.694-17.754-106.672-48.532l-354.036-389.434v1096.364c0 28.23 22.97 51.2 51.2 51.2h1740.8c28.23 0 51.2-22.97 51.2-51.2v-1740.8z" />
<glyph unicode="&#xe70f;" glyph-name="picture2" data-tags="picture, photo, polaroid" d="M1894.4-102.4h-1740.8c-84.694 0-153.6 68.902-153.6 153.6v1740.8c0 84.694 68.906 153.6 153.6 153.6h1740.8c84.698 0 153.6-68.906 153.6-153.6v-1740.8c0-84.698-68.902-153.6-153.6-153.6zM153.6 1843.2c-28.23 0-51.2-22.97-51.2-51.2v-1740.8c0-28.23 22.97-51.2 51.2-51.2h1740.8c28.23 0 51.2 22.97 51.2 51.2v1740.8c0 28.23-22.97 51.2-51.2 51.2h-1740.8zM1331.2 1024c-112.928 0-204.8 91.872-204.8 204.8s91.872 204.8 204.8 204.8 204.8-91.872 204.8-204.8-91.872-204.8-204.8-204.8zM1331.2 1331.2c-56.464 0-102.4-45.936-102.4-102.4s45.936-102.4 102.4-102.4 102.4 45.936 102.4 102.4-45.936 102.4-102.4 102.4zM1792 1740.8h-1536c-28.276 0-51.2-22.924-51.2-51.2v-1228.8c0-28.278 22.924-51.2 51.2-51.2h1536c28.278 0 51.2 22.922 51.2 51.2v1228.8c0 28.276-22.922 51.2-51.2 51.2zM307.2 748.534l328.636 369.716c8.406 9.456 19.388 14.742 30.924 14.88 11.45 0.18 22.644-4.876 31.276-14.124l566.54-607.004h-957.38v236.534zM1740.8 512h-336.15l-631.75 676.874c-28.538 30.576-66.624 47.21-107.382 46.65-40.708-0.492-78.428-17.984-106.214-49.242l-252.102-283.616v735.734h1433.6v-1126.4z" />
<glyph unicode="&#xe7a5;" glyph-name="phone" data-tags="phone, mobile, cellular" d="M1382.4-102.4h-819.2c-84.694 0-153.6 68.902-153.6 153.6v1740.8c0 84.694 68.906 153.6 153.6 153.6h819.2c84.698 0 153.6-68.906 153.6-153.6v-1740.8c0-84.698-68.902-153.6-153.6-153.6zM563.2 1843.2c-28.23 0-51.2-22.97-51.2-51.2v-1740.8c0-28.23 22.97-51.2 51.2-51.2h819.2c28.23 0 51.2 22.97 51.2 51.2v1740.8c0 28.23-22.97 51.2-51.2 51.2h-819.2zM1075.2 1638.4h-204.8c-28.276 0-51.2 22.924-51.2 51.2s22.924 51.2 51.2 51.2h204.8c28.278 0 51.2-22.924 51.2-51.2s-22.922-51.2-51.2-51.2zM716.8 1689.6c0-28.276-22.924-51.2-51.2-51.2s-51.2 22.924-51.2 51.2c0 28.276 22.924 51.2 51.2 51.2s51.2-22.924 51.2-51.2zM972.8 102.4c-84.694 0-153.6 68.902-153.6 153.6s68.906 153.6 153.6 153.6c84.698 0 153.6-68.902 153.6-153.6s-68.902-153.6-153.6-153.6zM972.8 307.2c-28.23 0-51.2-22.97-51.2-51.2s22.97-51.2 51.2-51.2 51.2 22.97 51.2 51.2-22.97 51.2-51.2 51.2z" />
<glyph unicode="&#xe7a6;" glyph-name="smartphone" data-tags="smartphone, mobile, phone, cellular" d="M1075.2 102.4h-102.4c-28.276 0-51.2 22.922-51.2 51.2s22.924 51.2 51.2 51.2h102.4c28.278 0 51.2-22.922 51.2-51.2s-22.922-51.2-51.2-51.2zM1484.8-102.4h-921.6c-84.694 0-153.6 68.902-153.6 153.6v1740.8c0 84.694 68.906 153.6 153.6 153.6h921.6c84.698 0 153.6-68.906 153.6-153.6v-1740.8c0-84.698-68.902-153.6-153.6-153.6zM563.2 1843.2c-28.23 0-51.2-22.97-51.2-51.2v-1740.8c0-28.23 22.97-51.2 51.2-51.2h921.6c28.23 0 51.2 22.97 51.2 51.2v1740.8c0 28.23-22.97 51.2-51.2 51.2h-921.6zM1382.4 307.2h-716.8c-28.276 0-51.2 22.922-51.2 51.2v1331.2c0 28.276 22.924 51.2 51.2 51.2h716.8c28.278 0 51.2-22.924 51.2-51.2v-1331.2c0-28.278-22.922-51.2-51.2-51.2zM716.8 409.6h614.4v1228.8h-614.4v-1228.8z" />
<glyph unicode="&#xe7ab;" glyph-name="tablet" data-tags="tablet, mobile" d="M1587.2-102.4h-1228.8c-84.694 0-153.6 68.902-153.6 153.6v1740.8c0 84.694 68.906 153.6 153.6 153.6h1228.8c84.698 0 153.6-68.906 153.6-153.6v-1740.8c0-84.698-68.902-153.6-153.6-153.6zM358.4 1843.2c-28.23 0-51.2-22.97-51.2-51.2v-1740.8c0-28.23 22.97-51.2 51.2-51.2h1228.8c28.23 0 51.2 22.97 51.2 51.2v1740.8c0 28.23-22.97 51.2-51.2 51.2h-1228.8zM1024 1689.6c0-28.276-22.924-51.2-51.2-51.2s-51.2 22.924-51.2 51.2c0 28.276 22.924 51.2 51.2 51.2s51.2-22.924 51.2-51.2zM972.8 102.4c-84.694 0-153.6 68.902-153.6 153.6s68.906 153.6 153.6 153.6c84.698 0 153.6-68.902 153.6-153.6s-68.902-153.6-153.6-153.6zM972.8 307.2c-28.23 0-51.2-22.97-51.2-51.2s22.97-51.2 51.2-51.2 51.2 22.97 51.2 51.2-22.97 51.2-51.2 51.2z" />
<glyph unicode="&#xe7ac;" glyph-name="tablet2" data-tags="tablet, mobile" d="M1689.6-102.4h-1331.2c-84.694 0-153.6 68.902-153.6 153.6v1740.8c0 84.694 68.906 153.6 153.6 153.6h1331.2c84.698 0 153.6-68.906 153.6-153.6v-1740.8c0-84.698-68.902-153.6-153.6-153.6zM358.4 1843.2c-28.23 0-51.2-22.97-51.2-51.2v-1740.8c0-28.23 22.97-51.2 51.2-51.2h1331.2c28.23 0 51.2 22.97 51.2 51.2v1740.8c0 28.23-22.97 51.2-51.2 51.2h-1331.2zM1075.2 102.4h-102.4c-28.276 0-51.2 22.922-51.2 51.2s22.924 51.2 51.2 51.2h102.4c28.278 0 51.2-22.922 51.2-51.2s-22.922-51.2-51.2-51.2zM1587.2 307.2h-1126.4c-28.276 0-51.2 22.922-51.2 51.2v1331.2c0 28.276 22.924 51.2 51.2 51.2h1126.4c28.278 0 51.2-22.924 51.2-51.2v-1331.2c0-28.278-22.922-51.2-51.2-51.2zM512 409.6h1024v1228.8h-1024v-1228.8z" />
<glyph unicode="&#xe7ad;" glyph-name="laptop" data-tags="laptop, computer, pc" d="M358.4 512h1331.2c84.698 0 153.6 68.902 153.6 153.6v819.2c0 84.694-68.902 153.6-153.6 153.6h-1331.2c-84.694 0-153.6-68.906-153.6-153.6v-819.2c0-84.698 68.906-153.6 153.6-153.6zM307.2 1484.8c0 28.23 22.97 51.2 51.2 51.2h1331.2c28.23 0 51.2-22.97 51.2-51.2v-819.2c0-28.23-22.97-51.2-51.2-51.2h-1331.2c-28.23 0-51.2 22.97-51.2 51.2v819.2zM1996.8 409.6h-1945.6c-28.276 0-51.2-22.922-51.2-51.2v-102.4c0-84.698 68.906-153.6 153.6-153.6h1740.8c84.698 0 153.6 68.902 153.6 153.6v102.4c0 28.278-22.922 51.2-51.2 51.2zM1894.4 204.8h-1740.8c-28.23 0-51.2 22.97-51.2 51.2v51.2h1843.2v-51.2c0-28.23-22.97-51.2-51.2-51.2z" />
<glyph unicode="&#xe7af;" glyph-name="desktop" data-tags="desktop, computer, pc, monitor" d="M1894.4 1843.2h-1740.8c-84.694 0-153.6-68.906-153.6-153.6v-1331.2c0-84.698 68.906-153.6 153.6-153.6h531.556l-70.756-141.514c-16.228-32.454-33.072-55.532-41.866-64.986-21.92-5.796-38.080-25.764-38.080-49.504 0-28.278 22.924-51.2 51.2-51.2h876.688c28.278 0 51.2 22.922 51.2 51.2 0 23.74-16.164 43.708-38.080 49.504-8.79 9.45-25.636 32.528-41.862 64.986l-70.756 141.514h531.556c84.698 0 153.6 68.902 153.6 153.6v1331.2c0 84.694-68.902 153.6-153.6 153.6zM153.6 1740.8h1740.8c28.23 0 51.2-22.97 51.2-51.2v-972.8h-1843.2v972.8c0 28.23 22.97 51.2 51.2 51.2zM1342.012 17.494c2.954-5.91 6.020-11.756 9.172-17.494h-654.364c3.148 5.738 6.218 11.584 9.172 17.494l93.654 187.306h448.716l93.652-187.306zM1894.4 307.2h-1740.8c-28.23 0-51.2 22.97-51.2 51.2v256h1843.2v-256c0-28.23-22.97-51.2-51.2-51.2zM1075.2 409.6h-102.4c-28.276 0-51.2 22.922-51.2 51.2s22.924 51.2 51.2 51.2h102.4c28.278 0 51.2-22.922 51.2-51.2s-22.922-51.2-51.2-51.2z" />
<glyph unicode="&#xe7ed;" glyph-name="lifebuoy" data-tags="lifebuoy, help, rescue" d="M1748.076 1645.676c-193.408 193.408-450.556 299.924-724.076 299.924s-530.668-106.516-724.076-299.924c-193.408-193.408-299.924-450.556-299.924-724.076s106.516-530.668 299.924-724.076c193.408-193.408 450.556-299.924 724.076-299.924s530.668 106.516 724.076 299.924c193.408 193.408 299.924 450.556 299.924 724.076s-106.516 530.668-299.924 724.076zM1024 409.6c-282.316 0-512 229.68-512 512 0 282.316 229.684 512 512 512 282.32 0 512-229.684 512-512 0-282.32-229.68-512-512-512zM102.4 921.6c0 34.612 1.984 68.768 5.718 102.4h310.064c-5.612-33.316-8.582-67.514-8.582-102.4 0-34.89 2.97-69.098 8.582-102.416l-310.064 0.016c-3.734 33.636-5.718 67.788-5.718 102.4zM1629.818 1024h310.064c3.734-33.632 5.718-67.788 5.718-102.4s-1.984-68.762-5.718-102.394h-310.060c5.61 33.312 8.58 67.51 8.58 102.394 0 34.886-2.97 69.084-8.582 102.4zM1922.63 1126.4h-319.376c-61.804 174.298-200.164 312.652-374.46 374.46l0.012 319.37c344.042-78.374 615.456-349.792 693.824-693.83zM1126.41 1837.478l-0.012-310.060c-33.312 5.616-67.514 8.582-102.396 8.582-34.886 0-69.084-2.966-102.4-8.582v310.064c33.632 3.734 67.788 5.718 102.4 5.718 34.614 0 68.774-1.984 102.41-5.722zM819.2 1820.23v-319.372c-174.298-61.808-312.65-200.16-374.458-374.458h-319.372c78.368 344.042 349.788 615.462 693.83 693.83zM125.37 716.8l319.38-0.016c61.808-174.292 200.16-312.636 374.452-374.442v-319.376c-344.042 78.374-615.462 349.792-693.83 693.834zM921.6 5.718v310.064c33.316-5.612 67.514-8.582 102.4-8.582 34.89 0 69.094 2.97 102.412 8.582v-310.060c-33.638-3.738-67.796-5.722-102.412-5.722-34.612 0-68.768 1.984-102.4 5.718zM1228.812 22.972v319.376c174.294 61.808 312.644 200.166 374.448 374.46h319.372c-78.368-344.044-349.782-615.462-693.82-693.836z" />
<glyph unicode="&#xe87b;" glyph-name="wall" data-tags="wall, bricks" d="M1894.4 1228.8c28.278 0 51.2 22.924 51.2 51.2s-22.922 51.2-51.2 51.2h-256v307.2h256c28.278 0 51.2 22.924 51.2 51.2s-22.922 51.2-51.2 51.2h-1843.2c-28.276 0-51.2-22.924-51.2-51.2s22.924-51.2 51.2-51.2h563.2v-307.2h-563.2c-28.276 0-51.2-22.924-51.2-51.2s22.924-51.2 51.2-51.2h256v-307.2h-256c-28.276 0-51.2-22.922-51.2-51.2s22.924-51.2 51.2-51.2h563.2v-307.2h-563.2c-28.276 0-51.2-22.922-51.2-51.2s22.924-51.2 51.2-51.2h256v-307.2h-256c-28.276 0-51.2-22.922-51.2-51.2s22.924-51.2 51.2-51.2h1843.2c28.278 0 51.2 22.922 51.2 51.2s-22.922 51.2-51.2 51.2h-563.2v307.2h563.2c28.278 0 51.2 22.922 51.2 51.2s-22.922 51.2-51.2 51.2h-256v307.2h256c28.278 0 51.2 22.922 51.2 51.2s-22.922 51.2-51.2 51.2h-563.2v307.2h563.2zM716.8 1638.4h819.2v-307.2h-819.2v307.2zM1228.8 102.4h-819.2v307.2h819.2v-307.2zM1536 512h-819.2v307.2h819.2v-307.2zM1228.8 921.6h-819.2v307.2h819.2v-307.2z" />
<glyph unicode="&#xe87e;" glyph-name="icons" data-tags="icons, grid, circles, apps" d="M1689.6 0c-141.158 0-256 114.842-256 256s114.842 256 256 256 256-114.842 256-256-114.842-256-256-256zM1689.6 409.6c-84.694 0-153.6-68.906-153.6-153.6s68.906-153.6 153.6-153.6 153.6 68.906 153.6 153.6-68.906 153.6-153.6 153.6zM972.8 0c-141.158 0-256 114.842-256 256s114.842 256 256 256 256-114.842 256-256-114.842-256-256-256zM972.8 409.6c-84.694 0-153.6-68.906-153.6-153.6s68.906-153.6 153.6-153.6c84.694 0 153.6 68.906 153.6 153.6s-68.906 153.6-153.6 153.6zM256 0c-141.158 0-256 114.842-256 256s114.842 256 256 256 256-114.842 256-256-114.842-256-256-256zM256 409.6c-84.694 0-153.6-68.906-153.6-153.6s68.906-153.6 153.6-153.6 153.6 68.906 153.6 153.6-68.906 153.6-153.6 153.6zM1689.6 716.8c-141.158 0-256 114.842-256 256s114.842 256 256 256 256-114.842 256-256-114.842-256-256-256zM1689.6 1126.4c-84.694 0-153.6-68.906-153.6-153.6s68.906-153.6 153.6-153.6 153.6 68.906 153.6 153.6c0 84.694-68.906 153.6-153.6 153.6zM972.8 716.8c-141.158 0-256 114.842-256 256s114.842 256 256 256 256-114.842 256-256-114.842-256-256-256zM972.8 1126.4c-84.694 0-153.6-68.906-153.6-153.6s68.906-153.6 153.6-153.6c84.694 0 153.6 68.906 153.6 153.6s-68.906 153.6-153.6 153.6zM256 716.8c-141.158 0-256 114.842-256 256s114.842 256 256 256 256-114.842 256-256-114.842-256-256-256zM256 1126.4c-84.694 0-153.6-68.906-153.6-153.6s68.906-153.6 153.6-153.6 153.6 68.906 153.6 153.6c0 84.694-68.906 153.6-153.6 153.6zM1689.6 1433.6c-141.158 0-256 114.842-256 256s114.842 256 256 256 256-114.842 256-256-114.842-256-256-256zM1689.6 1843.2c-84.694 0-153.6-68.906-153.6-153.6s68.906-153.6 153.6-153.6 153.6 68.906 153.6 153.6-68.906 153.6-153.6 153.6zM972.8 1433.6c-141.158 0-256 114.842-256 256s114.842 256 256 256 256-114.842 256-256-114.842-256-256-256zM972.8 1843.2c-84.694 0-153.6-68.906-153.6-153.6s68.906-153.6 153.6-153.6c84.694 0 153.6 68.906 153.6 153.6s-68.906 153.6-153.6 153.6zM256 1433.6c-141.158 0-256 114.842-256 256s114.842 256 256 256 256-114.842 256-256-114.842-256-256-256zM256 1843.2c-84.694 0-153.6-68.906-153.6-153.6s68.906-153.6 153.6-153.6 153.6 68.906 153.6 153.6-68.906 153.6-153.6 153.6z" />
<glyph unicode="&#xe87f;" glyph-name="resize-handle" data-tags="resize-handle" d="M1689.6 0c-141.158 0-256 114.842-256 256s114.842 256 256 256 256-114.842 256-256-114.842-256-256-256zM1689.6 409.6c-84.694 0-153.6-68.906-153.6-153.6s68.906-153.6 153.6-153.6 153.6 68.906 153.6 153.6-68.906 153.6-153.6 153.6zM972.8 0c-141.158 0-256 114.842-256 256s114.842 256 256 256 256-114.842 256-256-114.842-256-256-256zM972.8 409.6c-84.694 0-153.6-68.906-153.6-153.6s68.906-153.6 153.6-153.6c84.694 0 153.6 68.906 153.6 153.6s-68.906 153.6-153.6 153.6zM1689.6 716.8c-141.158 0-256 114.842-256 256s114.842 256 256 256 256-114.842 256-256-114.842-256-256-256zM1689.6 1126.4c-84.694 0-153.6-68.906-153.6-153.6s68.906-153.6 153.6-153.6 153.6 68.906 153.6 153.6c0 84.694-68.906 153.6-153.6 153.6zM1689.6 1433.6c-141.158 0-256 114.842-256 256s114.842 256 256 256 256-114.842 256-256-114.842-256-256-256zM1689.6 1843.2c-84.694 0-153.6-68.906-153.6-153.6s68.906-153.6 153.6-153.6 153.6 68.906 153.6 153.6-68.906 153.6-153.6 153.6zM972.8 716.8c-141.158 0-256 114.842-256 256s114.842 256 256 256 256-114.842 256-256-114.842-256-256-256zM972.8 1126.4c-84.694 0-153.6-68.906-153.6-153.6s68.906-153.6 153.6-153.6c84.694 0 153.6 68.906 153.6 153.6s-68.906 153.6-153.6 153.6zM256 0c-141.158 0-256 114.842-256 256s114.842 256 256 256 256-114.842 256-256-114.842-256-256-256zM256 409.6c-84.694 0-153.6-68.906-153.6-153.6s68.906-153.6 153.6-153.6 153.6 68.906 153.6 153.6-68.906 153.6-153.6 153.6z" />
<glyph unicode="&#xe880;" glyph-name="icons2" data-tags="icons, grid, apps" d="M358.4 0h-204.8c-84.694 0-153.6 68.906-153.6 153.6v204.8c0 84.694 68.906 153.6 153.6 153.6h204.8c84.694 0 153.6-68.906 153.6-153.6v-204.8c0-84.694-68.906-153.6-153.6-153.6zM153.6 409.6c-28.23 0-51.2-22.97-51.2-51.2v-204.8c0-28.23 22.97-51.2 51.2-51.2h204.8c28.23 0 51.2 22.97 51.2 51.2v204.8c0 28.23-22.97 51.2-51.2 51.2h-204.8zM1075.2 0h-204.8c-84.694 0-153.6 68.906-153.6 153.6v204.8c0 84.694 68.906 153.6 153.6 153.6h204.8c84.694 0 153.6-68.906 153.6-153.6v-204.8c0-84.694-68.906-153.6-153.6-153.6zM870.4 409.6c-28.23 0-51.2-22.97-51.2-51.2v-204.8c0-28.23 22.97-51.2 51.2-51.2h204.8c28.23 0 51.2 22.97 51.2 51.2v204.8c0 28.23-22.97 51.2-51.2 51.2h-204.8zM1792 0h-204.8c-84.694 0-153.6 68.906-153.6 153.6v204.8c0 84.694 68.906 153.6 153.6 153.6h204.8c84.694 0 153.6-68.906 153.6-153.6v-204.8c0-84.694-68.906-153.6-153.6-153.6zM1587.2 409.6c-28.23 0-51.2-22.97-51.2-51.2v-204.8c0-28.23 22.97-51.2 51.2-51.2h204.8c28.23 0 51.2 22.97 51.2 51.2v204.8c0 28.23-22.97 51.2-51.2 51.2h-204.8zM358.4 716.8h-204.8c-84.694 0-153.6 68.906-153.6 153.6v204.8c0 84.694 68.906 153.6 153.6 153.6h204.8c84.694 0 153.6-68.906 153.6-153.6v-204.8c0-84.694-68.906-153.6-153.6-153.6zM153.6 1126.4c-28.23 0-51.2-22.97-51.2-51.2v-204.8c0-28.23 22.97-51.2 51.2-51.2h204.8c28.23 0 51.2 22.97 51.2 51.2v204.8c0 28.23-22.97 51.2-51.2 51.2h-204.8zM1075.2 716.8h-204.8c-84.694 0-153.6 68.906-153.6 153.6v204.8c0 84.694 68.906 153.6 153.6 153.6h204.8c84.694 0 153.6-68.906 153.6-153.6v-204.8c0-84.694-68.906-153.6-153.6-153.6zM870.4 1126.4c-28.23 0-51.2-22.97-51.2-51.2v-204.8c0-28.23 22.97-51.2 51.2-51.2h204.8c28.23 0 51.2 22.97 51.2 51.2v204.8c0 28.23-22.97 51.2-51.2 51.2h-204.8zM1792 716.8h-204.8c-84.694 0-153.6 68.906-153.6 153.6v204.8c0 84.694 68.906 153.6 153.6 153.6h204.8c84.694 0 153.6-68.906 153.6-153.6v-204.8c0-84.694-68.906-153.6-153.6-153.6zM1587.2 1126.4c-28.23 0-51.2-22.97-51.2-51.2v-204.8c0-28.23 22.97-51.2 51.2-51.2h204.8c28.23 0 51.2 22.97 51.2 51.2v204.8c0 28.23-22.97 51.2-51.2 51.2h-204.8zM358.4 1433.6h-204.8c-84.694 0-153.6 68.906-153.6 153.6v204.8c0 84.694 68.906 153.6 153.6 153.6h204.8c84.694 0 153.6-68.906 153.6-153.6v-204.8c0-84.694-68.906-153.6-153.6-153.6zM153.6 1843.2c-28.23 0-51.2-22.97-51.2-51.2v-204.8c0-28.23 22.97-51.2 51.2-51.2h204.8c28.23 0 51.2 22.97 51.2 51.2v204.8c0 28.23-22.97 51.2-51.2 51.2h-204.8zM1075.2 1433.6h-204.8c-84.694 0-153.6 68.906-153.6 153.6v204.8c0 84.694 68.906 153.6 153.6 153.6h204.8c84.694 0 153.6-68.906 153.6-153.6v-204.8c0-84.694-68.906-153.6-153.6-153.6zM870.4 1843.2c-28.23 0-51.2-22.97-51.2-51.2v-204.8c0-28.23 22.97-51.2 51.2-51.2h204.8c28.23 0 51.2 22.97 51.2 51.2v204.8c0 28.23-22.97 51.2-51.2 51.2h-204.8zM1792 1433.6h-204.8c-84.694 0-153.6 68.906-153.6 153.6v204.8c0 84.694 68.906 153.6 153.6 153.6h204.8c84.694 0 153.6-68.906 153.6-153.6v-204.8c0-84.694-68.906-153.6-153.6-153.6zM1587.2 1843.2c-28.23 0-51.2-22.97-51.2-51.2v-204.8c0-28.23 22.97-51.2 51.2-51.2h204.8c28.23 0 51.2 22.97 51.2 51.2v204.8c0 28.23-22.97 51.2-51.2 51.2h-204.8z" />
<glyph unicode="&#xe883;" glyph-name="site-map" data-tags="site-map, tree" d="M1740.8 609.252v158.748c0 84.698-68.902 153.6-153.6 153.6h-563.2v209.952c116.71 23.786 204.8 127.22 204.8 250.848 0 141.158-114.842 256-256 256s-256-114.842-256-256c0-123.628 88.090-227.062 204.8-250.848v-209.952h-563.2c-84.694 0-153.6-68.902-153.6-153.6v-158.748c-116.71-23.788-204.8-127.222-204.8-250.852 0-141.158 114.842-256 256-256s256 114.842 256 256c0 123.628-88.090 227.062-204.8 250.852v158.748c0 28.23 22.97 51.2 51.2 51.2h563.2v-209.948c-116.71-23.788-204.8-127.222-204.8-250.852 0-141.158 114.842-256 256-256s256 114.842 256 256c0 123.628-88.090 227.062-204.8 250.852v209.948h563.2c28.23 0 51.2-22.97 51.2-51.2v-158.748c-116.71-23.788-204.8-127.222-204.8-250.852 0-141.158 114.842-256 256-256s256 114.842 256 256c0 123.628-88.090 227.062-204.8 250.852zM819.2 1382.4c0 84.694 68.906 153.6 153.6 153.6s153.6-68.906 153.6-153.6-68.906-153.6-153.6-153.6c-84.694 0-153.6 68.906-153.6 153.6zM409.6 358.4c0-84.694-68.906-153.6-153.6-153.6s-153.6 68.906-153.6 153.6 68.906 153.6 153.6 153.6 153.6-68.906 153.6-153.6zM1126.4 358.4c0-84.694-68.906-153.6-153.6-153.6s-153.6 68.906-153.6 153.6 68.906 153.6 153.6 153.6c84.694 0 153.6-68.906 153.6-153.6zM1689.6 204.8c-84.694 0-153.6 68.906-153.6 153.6s68.906 153.6 153.6 153.6 153.6-68.906 153.6-153.6-68.906-153.6-153.6-153.6z" />
<glyph unicode="&#xe8d8;" glyph-name="undo2" data-tags="undo, ccw, arrow" d="M1793.066 1485.866c-164.396 164.396-382.976 254.934-615.466 254.934s-451.068-90.538-615.466-254.934-254.934-382.972-254.934-615.466v-132.394l-219.798 219.798c-19.994 19.994-52.412 19.994-72.406 0s-19.996-52.412 0-72.406l307.2-307.2c10-10 23.1-14.998 36.204-14.998s26.204 4.998 36.202 14.998l307.2 307.2c19.996 19.994 19.996 52.412 0 72.406s-52.412 19.994-72.406 0l-219.796-219.798v132.394c0 423.476 344.524 768 768 768 423.478 0 768-344.524 768-768s-344.522-768-768-768c-28.278 0-51.2-22.922-51.2-51.2s22.922-51.2 51.2-51.2c232.49 0 451.068 90.538 615.466 254.934s254.934 382.976 254.934 615.466c0 232.492-90.538 451.068-254.934 615.466z" />
<glyph unicode="&#xe8d9;" glyph-name="redo2" data-tags="redo, cw, arrow" d="M254.934 1485.866c164.396 164.396 382.976 254.934 615.466 254.934 232.492 0 451.068-90.538 615.466-254.934s254.934-382.972 254.934-615.466v-132.394l219.798 219.798c19.994 19.994 52.412 19.994 72.406 0 19.996-19.994 19.996-52.412 0-72.406l-307.2-307.2c-10-10-23.1-14.998-36.204-14.998s-26.204 4.998-36.202 14.998l-307.2 307.2c-19.996 19.994-19.996 52.412 0 72.406 19.994 19.994 52.412 19.994 72.406 0l219.796-219.798v132.394c0 423.476-344.524 768-768 768-423.478 0-768-344.524-768-768 0-423.478 344.522-768 768-768 28.278 0 51.2-22.922 51.2-51.2s-22.922-51.2-51.2-51.2c-232.49 0-451.068 90.538-615.466 254.934s-254.934 382.976-254.934 615.466c0 232.492 90.538 451.068 254.934 615.466z" />
<glyph unicode="&#xe8da;" glyph-name="sync" data-tags="sync, spinner, loading, arrows" d="M2033.002 1060.204c-19.994 19.994-52.412 19.994-72.406 0l-117.664-117.664c-5.26 210.972-89.894 408.54-239.67 558.32-154.724 154.73-360.444 239.94-579.26 239.94-304.56 0-582.244-167.398-724.684-436.87-13.212-24.998-3.66-55.978 21.338-69.194 24.996-13.212 55.978-3.66 69.194 21.338 124.66 235.828 367.652 382.326 634.154 382.326 388.028 0 705.002-309.932 716.448-695.238l-117.044 117.044c-19.994 19.994-52.412 19.994-72.406 0-19.996-19.996-19.996-52.412 0-72.41l204.8-204.8c9.996-9.996 23.098-14.996 36.202-14.996s26.204 4.998 36.202 14.998l204.8 204.8c19.996 19.994 19.996 52.41 0 72.406zM1727.348 608.468c-25.004 13.206-55.98 3.664-69.194-21.338-124.656-235.83-367.652-382.33-634.154-382.33-388.032 0-705.004 309.932-716.448 695.242l117.044-117.044c10-10 23.1-14.998 36.204-14.998s26.204 4.998 36.204 14.998c19.994 19.994 19.994 52.412 0 72.406l-204.8 204.8c-19.996 19.994-52.412 19.994-72.41 0l-204.8-204.8c-19.994-19.994-19.994-52.412 0-72.406 19.996-19.994 52.412-19.994 72.41 0l117.66 117.664c5.26-210.976 89.892-408.544 239.67-558.324 154.73-154.726 360.448-239.94 579.264-239.94 304.56 0 582.24 167.398 724.684 436.87 13.216 25.002 3.658 55.98-21.338 69.196z" />
<glyph unicode="&#xe8f5;" glyph-name="download2" data-tags="download, down, arrow" d="M1520.998 957.798c-19.99 19.994-52.412 19.994-72.406 0l-424.592-424.588v1156.39c0 28.276-22.924 51.2-51.2 51.2s-51.2-22.924-51.2-51.2v-1156.39l-424.596 424.588c-19.996 19.994-52.412 19.994-72.41 0-19.994-19.99-19.994-52.412 0-72.406l512-512c10-9.994 23.1-14.992 36.204-14.992s26.204 4.998 36.204 15.002l512 512c19.994 19.99 19.994 52.406-0.006 72.396zM1792 0h-1638.4c-84.694 0-153.6 68.902-153.6 153.6v204.8c0 28.278 22.924 51.2 51.2 51.2s51.2-22.922 51.2-51.2v-204.8c0-28.23 22.97-51.2 51.2-51.2h1638.4c28.23 0 51.2 22.97 51.2 51.2v204.8c0 28.278 22.922 51.2 51.2 51.2s51.2-22.922 51.2-51.2v-204.8c0-84.698-68.902-153.6-153.6-153.6z" />
<glyph unicode="&#xe8f6;" glyph-name="upload2" data-tags="upload, up, arrow" d="M1792 0h-1638.4c-84.694 0-153.6 68.902-153.6 153.6v204.8c0 28.278 22.924 51.2 51.2 51.2s51.2-22.922 51.2-51.2v-204.8c0-28.23 22.97-51.2 51.2-51.2h1638.4c28.23 0 51.2 22.97 51.2 51.2v204.8c0 28.278 22.922 51.2 51.2 51.2s51.2-22.922 51.2-51.2v-204.8c0-84.698-68.902-153.6-153.6-153.6zM1521.002 1060.204l-512 512c-19.996 19.994-52.412 19.994-72.41 0l-512-512c-19.994-19.996-19.994-52.412 0-72.406s52.412-19.994 72.41 0l424.598 424.596v-1053.994c0-28.278 22.924-51.2 51.2-51.2s51.2 22.922 51.2 51.2v1053.994l424.598-424.596c9.996-10 23.098-14.998 36.202-14.998s26.204 4.998 36.202 14.998c19.996 19.994 19.996 52.41 0 72.406z" />
<glyph unicode="&#xe90b;" glyph-name="code" data-tags="code, embed" d="M512 409.6c-13.104 0-26.204 4.998-36.202 14.998l-409.6 409.6c-19.996 19.994-19.996 52.412 0 72.406l409.6 409.6c19.994 19.994 52.412 19.994 72.406 0 19.996-19.994 19.996-52.412 0-72.406l-373.398-373.398 373.396-373.398c19.996-19.994 19.996-52.412 0-72.406-9.996-9.996-23.098-14.996-36.202-14.996zM1536 409.6c-13.104 0-26.204 4.998-36.202 14.998-19.996 19.994-19.996 52.412 0 72.406l373.396 373.396-373.396 373.398c-19.996 19.994-19.996 52.412 0 72.406 19.994 19.994 52.412 19.994 72.406 0l409.6-409.6c19.996-19.994 19.996-52.412 0-72.406l-409.6-409.6c-10-10-23.1-14.998-36.204-14.998zM767.952 409.594c-9.268 0-18.65 2.516-27.088 7.788-23.978 14.988-31.268 46.576-16.282 70.556l512 819.2c14.986 23.968 46.566 31.268 70.556 16.282 23.978-14.988 31.268-46.576 16.282-70.556l-512-819.2c-9.716-15.54-26.404-24.070-43.468-24.070z" />
<glyph unicode="&#xe917;" glyph-name="link2" data-tags="link, url" d="M1093.834 614.576c-96.55 0-193.1 36.752-266.602 110.256-19.996 19.994-19.996 52.412 0 72.406s52.41 19.994 72.406 0c107.078-107.082 281.312-107.082 388.394 0l372.332 372.332c107.078 107.078 107.078 281.312 0 388.394-107.082 107.078-281.312 107.076-388.394 0l-314.164-314.166c-19.996-19.994-52.412-19.994-72.406 0-19.996 19.996-19.996 52.412 0 72.41l314.166 314.166c147.004 147.002 386.202 147.002 533.206 0s147.004-386.202 0-533.206l-372.336-372.336c-73.504-73.504-170.054-110.256-266.604-110.256zM479.434 0.176c-96.55 0-193.1 36.752-266.604 110.256-147.002 147.004-147.002 386.202 0 533.206l372.332 372.332c147.002 147.002 386.202 147.002 533.206 0 19.996-19.996 19.996-52.412 0-72.406-19.994-19.996-52.412-19.996-72.406 0-107.082 107.082-281.312 107.082-388.394 0l-372.33-372.332c-107.078-107.082-107.078-281.312 0-388.394s281.312-107.082 388.39 0l314.166 314.166c19.994 19.994 52.412 19.994 72.406 0 19.996-19.994 19.996-52.412 0-72.406l-314.166-314.166c-73.5-73.504-170.052-110.256-266.602-110.256z" />
<glyph unicode="&#xe918;" glyph-name="unlink2" data-tags="unlink, url" d="M1382.4 768c-13.104 0-26.204 4.998-36.202 14.998-19.996 19.994-19.996 52.412 0 72.406l314.166 314.166c51.872 51.872 80.442 120.842 80.442 194.198s-28.57 142.324-80.442 194.196c-107.078 107.076-281.308 107.082-388.394 0l-314.166-314.164c-19.994-19.996-52.412-19.996-72.406 0-19.996 19.994-19.996 52.412 0 72.406l314.166 314.166c147.008 147.004 386.208 146.998 533.206 0 71.216-71.212 110.436-165.894 110.436-266.604s-39.22-195.392-110.436-266.604l-314.166-314.164c-10-10.004-23.1-15.002-36.204-15.002zM479.434-0.004c-100.71 0-195.392 39.22-266.604 110.436-147.002 147.002-147.002 386.202 0 533.206l314.166 314.166c19.994 19.996 52.412 19.996 72.406 0 19.996-19.994 19.996-52.412 0-72.406l-314.164-314.166c-107.076-107.082-107.076-281.316 0-388.394 51.872-51.872 120.838-80.442 194.196-80.442s142.324 28.57 194.196 80.442l314.166 314.166c19.994 19.994 52.412 19.994 72.406 0 19.996-19.994 19.996-52.412 0-72.406l-314.166-314.166c-71.21-71.216-165.892-110.436-266.602-110.436zM563.2 1228.8c-13.104 0-26.204 4.998-36.202 14.998l-204.8 204.8c-19.996 19.994-19.996 52.412 0 72.406 19.994 19.996 52.412 19.996 72.406 0l204.8-204.8c19.996-19.994 19.996-52.412 0-72.406-10-10-23.1-14.998-36.204-14.998zM768 1331.2c-28.276 0-51.2 22.924-51.2 51.2v307.2c0 28.276 22.924 51.2 51.2 51.2s51.2-22.924 51.2-51.2v-307.2c0-28.276-22.924-51.2-51.2-51.2zM460.8 1024h-307.2c-28.276 0-51.2 22.924-51.2 51.2s22.924 51.2 51.2 51.2h307.2c28.276 0 51.2-22.924 51.2-51.2s-22.924-51.2-51.2-51.2zM1587.2 204.8c-13.104 0-26.204 4.998-36.202 14.998l-204.8 204.8c-19.996 19.994-19.996 52.412 0 72.406 19.994 19.994 52.412 19.994 72.406 0l204.8-204.8c19.996-19.994 19.996-52.412 0-72.406-10-10-23.1-14.998-36.204-14.998zM1792.004 614.4h-307.204c-28.278 0-51.2 22.922-51.2 51.2s22.922 51.2 51.2 51.2h307.204c28.278 0 51.2-22.922 51.2-51.2s-22.922-51.2-51.2-51.2zM1177.6 0c-28.278 0-51.2 22.922-51.2 51.2v307.2c0 28.278 22.922 51.2 51.2 51.2s51.2-22.922 51.2-51.2v-307.2c0-28.278-22.922-51.2-51.2-51.2z" />
<glyph unicode="&#xe91f;" glyph-name="share" data-tags="share, export" d="M1894.4 102.4h-1740.8c-84.694 0-153.6 68.902-153.6 153.6v1331.2c0 84.694 68.906 153.6 153.6 153.6h1126.4c28.278 0 51.2-22.924 51.2-51.2s-22.922-51.2-51.2-51.2h-1126.4c-28.23 0-51.2-22.97-51.2-51.2v-1331.2c0-28.23 22.97-51.2 51.2-51.2h1740.8c28.23 0 51.2 22.97 51.2 51.2v716.8c0 28.278 22.922 51.2 51.2 51.2s51.2-22.922 51.2-51.2v-716.8c0-84.698-68.902-153.6-153.6-153.6zM1981.802 1316.202l-409.6 409.6c-19.994 19.996-52.412 19.996-72.406 0-19.996-19.994-19.996-52.412 0-72.406l322.198-322.196h-644.394c-176.276 0-342.666-63.532-468.518-178.9-127.088-116.5-197.082-271.164-197.082-435.5v-51.2c0-28.278 22.924-51.2 51.2-51.2s51.2 22.922 51.2 51.2v51.2c0 282.32 252.65 512 563.2 512h644.394l-322.196-322.198c-19.996-19.994-19.996-52.412 0-72.406 9.996-9.996 23.098-14.996 36.202-14.996s26.204 4.998 36.202 14.998l409.6 409.6c19.996 19.994 19.996 52.41 0 72.404z" />
<glyph unicode="&#xe922;" glyph-name="magnifier" data-tags="magnifier, search" d="M1932.14-16.602l-608.604 663.93c137.146 143.508 212.464 331.098 212.464 530.272 0 205.14-79.884 398-224.94 543.060s-337.92 224.94-543.060 224.94-398-79.884-543.060-224.94-224.94-337.92-224.94-543.060 79.884-398.004 224.94-543.060 337.92-224.94 543.060-224.94c176.724 0 344.304 59.334 480.086 168.496l608.57-663.894c10.1-11.014 23.908-16.602 37.756-16.602 12.358 0 24.756 4.452 34.586 13.456 20.842 19.11 22.252 51.498 3.142 72.342zM102.4 1177.6c0 367.012 298.588 665.6 665.6 665.6s665.6-298.588 665.6-665.6-298.588-665.6-665.6-665.6-665.6 298.588-665.6 665.6z" />
<glyph unicode="&#xe92a;" glyph-name="cross" data-tags="cross, cancel" d="M1096.406 870.4l578.198 578.196c19.996 19.996 19.996 52.412 0 72.41-19.994 19.994-52.412 19.994-72.406 0l-578.198-578.198-578.196 578.198c-19.996 19.994-52.412 19.994-72.41 0-19.994-19.996-19.994-52.412 0-72.41l578.198-578.196-578.198-578.198c-19.994-19.994-19.994-52.412 0-72.406 10-9.996 23.1-14.996 36.204-14.996s26.204 4.998 36.204 14.998l578.196 578.196 578.198-578.198c9.996-9.996 23.098-14.996 36.202-14.996s26.204 4.998 36.202 14.998c19.996 19.994 19.996 52.412 0 72.406l-578.196 578.196z" />
<glyph unicode="&#xe934;" glyph-name="check" data-tags="check, checkmark" d="M563.2 153.6c-13.104 0-26.204 4.998-36.204 14.998l-512 512c-19.994 19.994-19.994 52.412 0 72.406 19.996 19.994 52.412 19.994 72.41 0l475.796-475.796 1397.398 1397.396c19.994 19.994 52.412 19.994 72.406 0 19.996-19.996 19.996-52.412 0-72.41l-1433.6-1433.6c-10-9.996-23.1-14.996-36.204-14.996z" />
<glyph unicode="&#xe935;" glyph-name="cross2" data-tags="cross, cancel" d="M1096.406 870.4l885.396 885.398c19.996 19.994 19.996 52.412 0 72.406-19.994 19.996-52.412 19.996-72.406 0l-885.396-885.398-885.398 885.396c-19.994 19.996-52.412 19.996-72.406 0-19.996-19.994-19.996-52.412 0-72.406l885.398-885.396-885.396-885.398c-19.996-19.994-19.996-52.412 0-72.406 9.996-9.996 23.098-14.996 36.202-14.996s26.204 4.998 36.202 14.998l885.398 885.396 885.398-885.398c9.996-9.996 23.098-14.996 36.202-14.996s26.204 4.998 36.202 14.998c19.996 19.994 19.996 52.412 0 72.406l-885.396 885.396z" />
<glyph unicode="&#xe936;" glyph-name="plus" data-tags="plus, add, cross" d="M1894.4 921.6h-870.4v870.4c0 28.276-22.924 51.2-51.2 51.2s-51.2-22.924-51.2-51.2v-870.4h-870.4c-28.276 0-51.2-22.922-51.2-51.2s22.924-51.2 51.2-51.2h870.4v-870.4c0-28.278 22.924-51.2 51.2-51.2s51.2 22.922 51.2 51.2v870.4h870.4c28.278 0 51.2 22.922 51.2 51.2s-22.922 51.2-51.2 51.2z" />
<glyph unicode="&#xe937;" glyph-name="minus" data-tags="minus, subtract, line" d="M1894.4 819.2h-1843.2c-28.276 0-51.2 22.922-51.2 51.2s22.924 51.2 51.2 51.2h1843.2c28.278 0 51.2-22.922 51.2-51.2s-22.922-51.2-51.2-51.2z" />
<glyph unicode="&#xe939;" glyph-name="chevron-up" data-tags="chevron-up, up" d="M0 409.6c0-13.104 4.998-26.204 14.998-36.202 19.994-19.996 52.412-19.996 72.406 0l885.396 885.396 885.398-885.396c19.994-19.996 52.412-19.996 72.406 0s19.996 52.412 0 72.406l-921.6 921.6c-19.994 19.996-52.412 19.996-72.406 0l-921.6-921.6c-10-10-14.998-23.1-14.998-36.204z" />
<glyph unicode="&#xe93a;" glyph-name="chevron-down" data-tags="chevron-down, down" d="M0 1331.2c0 13.104 4.998 26.204 14.998 36.202 19.994 19.996 52.412 19.996 72.406 0l885.396-885.396 885.398 885.396c19.994 19.996 52.412 19.996 72.406 0s19.996-52.412 0-72.406l-921.6-921.6c-19.994-19.996-52.412-19.996-72.406 0l-921.6 921.6c-10 10-14.998 23.1-14.998 36.204z" />
<glyph unicode="&#xe93b;" glyph-name="chevron-left" data-tags="chevron-left, left" d="M1433.6-102.4c13.104 0 26.204 4.998 36.202 14.998 19.996 19.994 19.996 52.412 0 72.406l-885.396 885.396 885.396 885.398c19.996 19.994 19.996 52.412 0 72.406s-52.412 19.996-72.406 0l-921.6-921.6c-19.996-19.994-19.996-52.412 0-72.406l921.6-921.6c10-10 23.1-14.998 36.204-14.998z" />
<glyph unicode="&#xe93c;" glyph-name="chevron-right" data-tags="chevron-right, right" d="M512-102.4c-13.104 0-26.204 4.998-36.202 14.998-19.996 19.994-19.996 52.412 0 72.406l885.396 885.396-885.396 885.398c-19.996 19.994-19.996 52.412 0 72.406 19.994 19.996 52.412 19.996 72.406 0l921.6-921.6c19.996-19.994 19.996-52.412 0-72.406l-921.6-921.6c-10-10-23.1-14.998-36.204-14.998z" />
<glyph unicode="&#xe943;" glyph-name="arrow-left" data-tags="arrow-left, left" d="M66.198 906.602l614.4 614.4c19.994 19.994 52.412 19.994 72.406 0 19.996-19.996 19.996-52.412 0-72.41l-526.996-526.992h1668.39c28.276 0 51.2-22.922 51.2-51.2s-22.924-51.2-51.2-51.2h-1668.39l526.992-526.998c19.996-19.994 19.996-52.412 0-72.406-9.996-9.996-23.098-14.996-36.202-14.996s-26.204 4.998-36.202 14.998l-614.4 614.4c-19.996 19.994-19.996 52.41 0 72.404z" />
<glyph unicode="&#xe944;" glyph-name="arrow-right" data-tags="arrow-right, right" d="M1981.802 906.602l-614.4 614.4c-19.994 19.994-52.412 19.994-72.406 0-19.996-19.996-19.996-52.412 0-72.41l526.996-526.992h-1668.39c-28.276 0-51.2-22.922-51.2-51.2s22.924-51.2 51.2-51.2h1668.39l-526.992-526.998c-19.996-19.994-19.996-52.412 0-72.406 9.996-9.996 23.098-14.996 36.202-14.996s26.204 4.998 36.202 14.998l614.4 614.4c19.996 19.994 19.996 52.41 0 72.404z" />
<glyph unicode="&#xe94a;" glyph-name="expand" data-tags="expand, maximize, full-screen, arrows" d="M804.204 1213.804l-629.396 629.396h388.39c28.276 0 51.2 22.924 51.2 51.2s-22.924 51.2-51.2 51.2h-512c-28.276 0-51.2-22.924-51.2-51.2v-512c0-28.276 22.924-51.2 51.2-51.2s51.2 22.924 51.2 51.2v388.39l629.396-629.396c10-9.996 23.1-14.996 36.204-14.996s26.204 4.998 36.204 14.996c19.994 19.996 19.994 52.412 0 72.41zM1996.8 1945.6h-512c-28.278 0-51.2-22.924-51.2-51.2s22.922-51.2 51.2-51.2h388.394l-629.392-629.396c-20-19.996-20-52.412 0-72.41 9.994-9.996 23.094-14.996 36.198-14.996s26.204 4.998 36.198 14.996l629.402 629.398v-388.394c0-28.276 22.922-51.2 51.2-51.2s51.2 22.924 51.2 51.2v512c0 28.276-22.922 51.2-51.2 51.2zM804.204 701.798c-19.996 19.994-52.412 19.994-72.41 0l-629.396-629.392v388.394c0 28.278-22.924 51.2-51.2 51.2s-51.2-22.922-51.2-51.2v-512c0-28.278 22.924-51.2 51.2-51.2h512c28.276 0 51.2 22.922 51.2 51.2s-22.924 51.2-51.2 51.2h-388.394l629.398 629.402c19.994 19.99 19.994 52.406 0 72.396zM1996.8 512c-28.278 0-51.2-22.922-51.2-51.2v-388.394l-629.402 629.392c-19.99 19.994-52.412 19.994-72.406 0-19.994-19.99-19.994-52.412 0-72.406l629.402-629.392h-388.394c-28.278 0-51.2-22.922-51.2-51.2s22.922-51.2 51.2-51.2h512c28.278 0 51.2 22.922 51.2 51.2v512c0 28.278-22.922 51.2-51.2 51.2z" />
<glyph unicode="&#xe94b;" glyph-name="contract" data-tags="contract, minimize, collapse, arrows" d="M768 1638.4c-28.276 0-51.2-22.924-51.2-51.2v-285.99l-629.396 629.396c-19.996 19.994-52.412 19.994-72.41 0-19.994-19.996-19.994-52.412 0-72.41l629.396-629.396h-285.99c-28.276 0-51.2-22.924-51.2-51.2s22.924-51.2 51.2-51.2h409.6c28.276 0 51.2 22.924 51.2 51.2v409.6c0 28.276-22.924 51.2-51.2 51.2zM2032.998 1930.604c-19.994 19.994-52.412 19.994-72.406 0l-629.392-629.398v285.994c0 28.276-22.922 51.2-51.2 51.2s-51.2-22.924-51.2-51.2v-409.6c0-28.276 22.922-51.2 51.2-51.2h409.6c28.278 0 51.2 22.924 51.2 51.2s-22.922 51.2-51.2 51.2h-285.994l629.392 629.396c20 19.996 20 52.412 0 72.41zM768 716.8h-409.6c-28.276 0-51.2-22.922-51.2-51.2s22.924-51.2 51.2-51.2h285.994l-629.398-629.402c-19.994-19.99-19.994-52.412 0-72.406 10-9.994 23.1-14.992 36.204-14.992s26.204 4.998 36.204 15.002l629.396 629.392v-285.994c0-28.278 22.924-51.2 51.2-51.2s51.2 22.922 51.2 51.2v409.6c0 28.278-22.924 51.2-51.2 51.2zM2032.998-15.002l-629.392 629.402h285.994c28.278 0 51.2 22.922 51.2 51.2s-22.922 51.2-51.2 51.2h-409.6c-28.278 0-51.2-22.922-51.2-51.2v-409.6c0-28.278 22.922-51.2 51.2-51.2s51.2 22.922 51.2 51.2v285.994l629.402-629.402c9.994-9.994 23.094-14.992 36.198-14.992s26.204 4.998 36.198 15.002c20 19.99 20 52.406 0 72.396z" />
<glyph unicode="&#xe95a;" glyph-name="cross-circle" data-tags="cross-circle, cross" d="M1467.616 499.068l-417.748 371.332 417.748 371.334c21.132 18.788 23.036 51.148 4.252 72.282-18.788 21.132-51.148 23.044-72.284 4.252l-426.784-379.364-426.784 379.36c-21.136 18.784-53.498 16.88-72.282-4.252-18.788-21.132-16.884-53.498 4.252-72.282l417.748-371.332-417.75-371.332c-21.132-18.788-23.036-51.148-4.252-72.284 10.118-11.382 24.17-17.184 38.284-17.184 12.096 0 24.244 4.262 33.996 12.932l426.788 379.366 426.784-379.366c9.756-8.668 21.898-12.932 33.996-12.932 14.116 0 28.172 5.804 38.288 17.184 18.784 21.136 16.88 53.498-4.252 72.284zM972.8-102.4c-259.844 0-504.134 101.188-687.872 284.928-183.738 183.738-284.928 428.028-284.928 687.872 0 259.846 101.19 504.134 284.928 687.872s428.026 284.928 687.872 284.928c259.844 0 504.134-101.19 687.872-284.928 183.74-183.738 284.928-428.028 284.928-687.872s-101.188-504.134-284.928-687.872c-183.738-183.74-428.028-284.928-687.872-284.928zM972.8 1740.8c-479.94 0-870.4-390.46-870.4-870.4s390.46-870.4 870.4-870.4 870.4 390.46 870.4 870.4-390.46 870.4-870.4 870.4z" />
<glyph unicode="&#xe964;" glyph-name="chevron-left-circle" data-tags="chevron-left-circle, left" d="M284.924 1558.272c183.738 183.738 428.032 284.928 687.876 284.928s504.134-101.19 687.872-284.928 284.928-428.028 284.928-687.872-101.19-504.138-284.928-687.876-428.028-284.924-687.872-284.924-504.138 101.188-687.876 284.924-284.924 428.032-284.924 687.876 101.188 504.134 284.924 687.872zM972.8 0c479.94 0 870.4 390.46 870.4 870.4s-390.46 870.4-870.4 870.4c-479.94 0-870.4-390.46-870.4-870.4s390.46-870.4 870.4-870.4zM1126.4 307.2c13.104 0 26.204 4.998 36.204 14.998 19.994 19.994 19.994 52.412 0 72.406l-475.796 475.796 475.796 475.796c19.994 19.996 19.994 52.412 0 72.41-19.996 19.994-52.412 19.994-72.41 0l-512-512c-19.996-19.994-19.996-52.412 0-72.406l512-512c10-10 23.1-14.998 36.204-14.998z" />
<glyph unicode="&#xe965;" glyph-name="chevron-right-circle" data-tags="chevron-right-circle, right" d="M1660.676 1558.272c-183.738 183.738-428.032 284.928-687.876 284.928s-504.134-101.19-687.872-284.928-284.928-428.028-284.928-687.872 101.19-504.138 284.928-687.876 428.028-284.924 687.872-284.924 504.138 101.188 687.876 284.924 284.924 428.032 284.924 687.876-101.188 504.134-284.924 687.872zM972.8 0c-479.94 0-870.4 390.46-870.4 870.4s390.46 870.4 870.4 870.4c479.94 0 870.4-390.46 870.4-870.4s-390.46-870.4-870.4-870.4zM819.2 307.2c-13.104 0-26.204 4.998-36.204 14.998-19.994 19.994-19.994 52.412 0 72.406l475.796 475.796-475.796 475.796c-19.994 19.996-19.994 52.412 0 72.41 19.996 19.994 52.412 19.994 72.41 0l512-512c19.996-19.994 19.996-52.412 0-72.406l-512-512c-10-10-23.1-14.998-36.204-14.998z" />
<glyph unicode="&#xe975;" glyph-name="grid" data-tags="grid, squares" d="M1689.6 1740.8h-1331.2c-84.694 0-153.6-68.906-153.6-153.6v-1331.2c0-84.698 68.906-153.6 153.6-153.6h1331.2c84.698 0 153.6 68.902 153.6 153.6v1331.2c0 84.694-68.902 153.6-153.6 153.6zM1740.8 1587.2v-358.4h-409.6v409.6h358.4c28.23 0 51.2-22.97 51.2-51.2zM819.2 716.8v409.6h409.6v-409.6h-409.6zM1228.8 614.4v-409.6h-409.6v409.6h409.6zM716.8 716.8h-409.6v409.6h409.6v-409.6zM819.2 1228.8v409.6h409.6v-409.6h-409.6zM1331.2 1126.4h409.6v-409.6h-409.6v409.6zM358.4 1638.4h358.4v-409.6h-409.6v358.4c0 28.23 22.97 51.2 51.2 51.2zM307.2 256v358.4h409.6v-409.6h-358.4c-28.23 0-51.2 22.97-51.2 51.2zM1689.6 204.8h-358.4v409.6h409.6v-358.4c0-28.23-22.97-51.2-51.2-51.2z" />
<glyph unicode="&#xe987;" glyph-name="align-center-vertical" data-tags="align-center-vertical, align" d="M1689.6 819.2h-665.6v204.8h358.4c84.694 0 153.6 68.906 153.6 153.6v409.6c0 84.694-68.906 153.6-153.6 153.6h-358.4v153.6c0 28.276-22.924 51.2-51.2 51.2s-51.2-22.924-51.2-51.2v-153.6h-358.4c-84.694 0-153.6-68.906-153.6-153.6v-409.6c0-84.694 68.906-153.6 153.6-153.6h358.4v-204.8h-665.6c-84.694 0-153.6-68.902-153.6-153.6v-409.6c0-84.698 68.906-153.6 153.6-153.6h665.6v-153.6c0-28.278 22.924-51.2 51.2-51.2s51.2 22.922 51.2 51.2v153.6h665.6c84.698 0 153.6 68.902 153.6 153.6v409.6c0 84.698-68.902 153.6-153.6 153.6zM1382.4 1638.4c28.23 0 51.2-22.97 51.2-51.2v-409.6c0-28.23-22.97-51.2-51.2-51.2h-358.4v512h358.4zM563.2 1126.4c-28.23 0-51.2 22.97-51.2 51.2v409.6c0 28.23 22.97 51.2 51.2 51.2h358.4v-512h-358.4zM256 204.8c-28.23 0-51.2 22.97-51.2 51.2v409.6c0 28.23 22.97 51.2 51.2 51.2h665.6v-512h-665.6zM1740.8 256c0-28.23-22.97-51.2-51.2-51.2h-665.6v512h665.6c28.23 0 51.2-22.97 51.2-51.2v-409.6z" />
<glyph unicode="&#xe988;" glyph-name="align-right" data-tags="align-right, align" d="M1996.8-102.4c28.276 0 51.2 22.922 51.2 51.2v1945.6c0 28.276-22.924 51.2-51.2 51.2s-51.2-22.924-51.2-51.2v-1945.6c0-28.278 22.924-51.2 51.2-51.2zM716.8 1177.6v409.6c0 84.694 68.906 153.6 153.6 153.6h819.2c84.694 0 153.6-68.906 153.6-153.6v-409.6c0-84.694-68.906-153.6-153.6-153.6h-819.2c-84.694 0-153.6 68.906-153.6 153.6zM870.4 1638.4c-28.23 0-51.2-22.97-51.2-51.2v-409.6c0-28.23 22.97-51.2 51.2-51.2h819.2c28.23 0 51.2 22.97 51.2 51.2v409.6c0 28.23-22.97 51.2-51.2 51.2h-819.2zM102.4 256v409.6c0 84.698 68.902 153.6 153.6 153.6h1433.6c84.694 0 153.6-68.902 153.6-153.6v-409.6c0-84.698-68.906-153.6-153.6-153.6h-1433.6c-84.698 0-153.6 68.902-153.6 153.6zM256 716.8c-28.23 0-51.2-22.97-51.2-51.2v-409.6c0-28.23 22.97-51.2 51.2-51.2h1433.6c28.23 0 51.2 22.97 51.2 51.2v409.6c0 28.23-22.97 51.2-51.2 51.2h-1433.6z" />
<glyph unicode="&#xe989;" glyph-name="align-bottom" data-tags="align-bottom, align" d="M0-51.2c0-28.276 22.922-51.2 51.2-51.2h1945.6c28.276 0 51.2 22.924 51.2 51.2s-22.924 51.2-51.2 51.2h-1945.6c-28.278 0-51.2-22.924-51.2-51.2zM1280 1228.8h409.6c84.694 0 153.6-68.906 153.6-153.6v-819.2c0-84.694-68.906-153.6-153.6-153.6h-409.6c-84.694 0-153.6 68.906-153.6 153.6v819.2c0 84.694 68.906 153.6 153.6 153.6zM1740.8 1075.2c0 28.23-22.97 51.2-51.2 51.2h-409.6c-28.23 0-51.2-22.97-51.2-51.2v-819.2c0-28.23 22.97-51.2 51.2-51.2h409.6c28.23 0 51.2 22.97 51.2 51.2v819.2zM358.4 1843.2h409.6c84.698 0 153.6-68.902 153.6-153.6v-1433.6c0-84.694-68.902-153.6-153.6-153.6h-409.6c-84.698 0-153.6 68.906-153.6 153.6v1433.6c0 84.698 68.902 153.6 153.6 153.6zM819.2 1689.6c0 28.23-22.97 51.2-51.2 51.2h-409.6c-28.23 0-51.2-22.97-51.2-51.2v-1433.6c0-28.23 22.97-51.2 51.2-51.2h409.6c28.23 0 51.2 22.97 51.2 51.2v1433.6z" />
<glyph unicode="&#xe98a;" glyph-name="align-left" data-tags="align-left, align" d="M51.2-102.4c-28.276 0-51.2 22.922-51.2 51.2v1945.6c0 28.276 22.924 51.2 51.2 51.2s51.2-22.924 51.2-51.2v-1945.6c0-28.278-22.924-51.2-51.2-51.2zM1177.6 1024h-819.2c-84.694 0-153.6 68.906-153.6 153.6v409.6c0 84.694 68.906 153.6 153.6 153.6h819.2c84.694 0 153.6-68.906 153.6-153.6v-409.6c0-84.694-68.906-153.6-153.6-153.6zM358.4 1638.4c-28.23 0-51.2-22.97-51.2-51.2v-409.6c0-28.23 22.97-51.2 51.2-51.2h819.2c28.23 0 51.2 22.97 51.2 51.2v409.6c0 28.23-22.97 51.2-51.2 51.2h-819.2zM1792 102.4h-1433.6c-84.694 0-153.6 68.902-153.6 153.6v409.6c0 84.698 68.906 153.6 153.6 153.6h1433.6c84.698 0 153.6-68.902 153.6-153.6v-409.6c0-84.698-68.902-153.6-153.6-153.6zM358.4 716.8c-28.23 0-51.2-22.97-51.2-51.2v-409.6c0-28.23 22.97-51.2 51.2-51.2h1433.6c28.23 0 51.2 22.97 51.2 51.2v409.6c0 28.23-22.97 51.2-51.2 51.2h-1433.6z" />
<glyph unicode="&#xe98b;" glyph-name="align-center-horizontal" data-tags="align-center-horizontal, align" d="M1996.8 921.6h-153.6v358.4c0 84.694-68.906 153.6-153.6 153.6h-409.6c-84.694 0-153.6-68.906-153.6-153.6v-358.4h-204.8v665.6c0 84.694-68.902 153.6-153.6 153.6h-409.6c-84.698 0-153.6-68.906-153.6-153.6v-665.6h-153.6c-28.278 0-51.2-22.924-51.2-51.2s22.922-51.2 51.2-51.2h153.6v-665.6c0-84.698 68.902-153.6 153.6-153.6h409.6c84.698 0 153.6 68.902 153.6 153.6v665.6h204.8v-358.4c0-84.694 68.906-153.6 153.6-153.6h409.6c84.694 0 153.6 68.906 153.6 153.6v358.4h153.6c28.276 0 51.2 22.924 51.2 51.2s-22.924 51.2-51.2 51.2zM1228.8 1280c0 28.23 22.97 51.2 51.2 51.2h409.6c28.23 0 51.2-22.97 51.2-51.2v-358.4h-512v358.4zM307.2 1587.2c0 28.23 22.97 51.2 51.2 51.2h409.6c28.23 0 51.2-22.97 51.2-51.2v-665.6h-512v665.6zM819.2 153.6c0-28.23-22.97-51.2-51.2-51.2h-409.6c-28.23 0-51.2 22.97-51.2 51.2v665.6h512v-665.6zM1740.8 460.8c0-28.23-22.97-51.2-51.2-51.2h-409.6c-28.23 0-51.2 22.97-51.2 51.2v358.4h512v-358.4z" />
<glyph unicode="&#xe98c;" glyph-name="align-top" data-tags="align-top, align" d="M0 1894.4c0 28.276 22.922 51.2 51.2 51.2h1945.6c28.276 0 51.2-22.924 51.2-51.2s-22.924-51.2-51.2-51.2h-1945.6c-28.278 0-51.2 22.924-51.2 51.2zM1126.4 768v819.2c0 84.694 68.906 153.6 153.6 153.6h409.6c84.694 0 153.6-68.906 153.6-153.6v-819.2c0-84.694-68.906-153.6-153.6-153.6h-409.6c-84.694 0-153.6 68.906-153.6 153.6zM1740.8 1587.2c0 28.23-22.97 51.2-51.2 51.2h-409.6c-28.23 0-51.2-22.97-51.2-51.2v-819.2c0-28.23 22.97-51.2 51.2-51.2h409.6c28.23 0 51.2 22.97 51.2 51.2v819.2zM204.8 153.6v1433.6c0 84.694 68.902 153.6 153.6 153.6h409.6c84.698 0 153.6-68.906 153.6-153.6v-1433.6c0-84.698-68.902-153.6-153.6-153.6h-409.6c-84.698 0-153.6 68.902-153.6 153.6zM819.2 1587.2c0 28.23-22.97 51.2-51.2 51.2h-409.6c-28.23 0-51.2-22.97-51.2-51.2v-1433.6c0-28.23 22.97-51.2 51.2-51.2h409.6c28.23 0 51.2 22.97 51.2 51.2v1433.6z" />
<glyph unicode="&#xe9a2;" glyph-name="text-size" data-tags="text-size, typography, font-size" d="M712.662 276.17l-131.468 306.762c-0.060 0.144-0.122 0.288-0.186 0.432l-175.546 409.606c-8.070 18.826-26.582 31.030-47.062 31.030s-38.992-12.204-47.062-31.030l-175.542-409.606c-0.064-0.144-0.124-0.288-0.186-0.432l-131.472-306.762c-11.136-25.99 0.902-56.090 26.892-67.228 25.994-11.14 56.092 0.902 67.228 26.89l118.358 276.17h283.562l118.358-276.17c8.324-19.414 27.22-31.046 47.084-31.044 6.726 0 13.568 1.334 20.144 4.154 25.994 11.136 38.032 41.238 26.896 67.228zM260.502 614.4l97.898 228.426 97.898-228.426h-195.796zM2044.064 275.692l-213.338 512.006c-0.058 0.138-0.112 0.276-0.17 0.41l-298.492 716.384c-7.952 19.078-26.596 31.508-47.264 31.508s-39.312-12.428-47.264-31.508l-298.486-716.368c-0.064-0.15-0.122-0.298-0.186-0.444l-213.328-511.988c-10.876-26.102 1.466-56.076 27.568-66.956 26.096-10.87 56.080 1.468 66.954 27.568l200.208 480.496h529.066l200.204-480.492c8.196-19.664 27.232-31.52 47.284-31.52 6.564 0 13.236 1.268 19.67 3.948 26.106 10.88 38.448 40.854 27.574 66.956zM1262.934 819.2l221.866 532.48 221.866-532.48h-443.732z" />
<glyph unicode="&#xe9a8;" glyph-name="text-align-left" data-tags="text-align-left, typography, paragraph" d="M1792 1433.6h-1536c-28.276 0-51.2 22.924-51.2 51.2s22.924 51.2 51.2 51.2h1536c28.278 0 51.2-22.924 51.2-51.2s-22.922-51.2-51.2-51.2zM1382.4 1126.4h-1126.4c-28.276 0-51.2 22.922-51.2 51.2s22.924 51.2 51.2 51.2h1126.4c28.278 0 51.2-22.922 51.2-51.2s-22.922-51.2-51.2-51.2zM1792 819.2h-1536c-28.276 0-51.2 22.922-51.2 51.2s22.924 51.2 51.2 51.2h1536c28.278 0 51.2-22.922 51.2-51.2s-22.922-51.2-51.2-51.2zM1382.4 512h-1126.4c-28.276 0-51.2 22.922-51.2 51.2s22.924 51.2 51.2 51.2h1126.4c28.278 0 51.2-22.922 51.2-51.2s-22.922-51.2-51.2-51.2zM1792 204.8h-1536c-28.276 0-51.2 22.922-51.2 51.2s22.924 51.2 51.2 51.2h1536c28.278 0 51.2-22.922 51.2-51.2s-22.922-51.2-51.2-51.2z" />
<glyph unicode="&#xe9a9;" glyph-name="text-align-center" data-tags="text-align-center, typography, paragraph" d="M1792 1433.6h-1536c-28.276 0-51.2 22.924-51.2 51.2s22.924 51.2 51.2 51.2h1536c28.278 0 51.2-22.924 51.2-51.2s-22.922-51.2-51.2-51.2zM1587.2 1126.4h-1126.4c-28.276 0-51.2 22.922-51.2 51.2s22.924 51.2 51.2 51.2h1126.4c28.278 0 51.2-22.922 51.2-51.2s-22.922-51.2-51.2-51.2zM1792 819.2h-1536c-28.276 0-51.2 22.922-51.2 51.2s22.924 51.2 51.2 51.2h1536c28.278 0 51.2-22.922 51.2-51.2s-22.922-51.2-51.2-51.2zM1587.2 512h-1126.4c-28.276 0-51.2 22.922-51.2 51.2s22.924 51.2 51.2 51.2h1126.4c28.278 0 51.2-22.922 51.2-51.2s-22.922-51.2-51.2-51.2zM1792 204.8h-1536c-28.276 0-51.2 22.922-51.2 51.2s22.924 51.2 51.2 51.2h1536c28.278 0 51.2-22.922 51.2-51.2s-22.922-51.2-51.2-51.2z" />
<glyph unicode="&#xe9aa;" glyph-name="text-align-right" data-tags="text-align-right, typography, paragraph" d="M1792 1433.6h-1536c-28.276 0-51.2 22.924-51.2 51.2s22.924 51.2 51.2 51.2h1536c28.278 0 51.2-22.924 51.2-51.2s-22.922-51.2-51.2-51.2zM1792 1126.4h-1126.4c-28.276 0-51.2 22.922-51.2 51.2s22.924 51.2 51.2 51.2h1126.4c28.278 0 51.2-22.922 51.2-51.2s-22.922-51.2-51.2-51.2zM1792 819.2h-1536c-28.276 0-51.2 22.922-51.2 51.2s22.924 51.2 51.2 51.2h1536c28.278 0 51.2-22.922 51.2-51.2s-22.922-51.2-51.2-51.2zM1792 512h-1126.4c-28.276 0-51.2 22.922-51.2 51.2s22.924 51.2 51.2 51.2h1126.4c28.278 0 51.2-22.922 51.2-51.2s-22.922-51.2-51.2-51.2zM1792 204.8h-1536c-28.276 0-51.2 22.922-51.2 51.2s22.924 51.2 51.2 51.2h1536c28.278 0 51.2-22.922 51.2-51.2s-22.922-51.2-51.2-51.2z" />
<glyph unicode="&#xe9ab;" glyph-name="text-align-justify" data-tags="text-align-justify, typography, paragraph" d="M1792 1433.6h-1536c-28.276 0-51.2 22.924-51.2 51.2s22.924 51.2 51.2 51.2h1536c28.278 0 51.2-22.924 51.2-51.2s-22.922-51.2-51.2-51.2zM1792 1126.4h-1536c-28.276 0-51.2 22.922-51.2 51.2s22.924 51.2 51.2 51.2h1536c28.278 0 51.2-22.922 51.2-51.2s-22.922-51.2-51.2-51.2zM1792 819.2h-1536c-28.276 0-51.2 22.922-51.2 51.2s22.924 51.2 51.2 51.2h1536c28.278 0 51.2-22.922 51.2-51.2s-22.922-51.2-51.2-51.2zM1792 512h-1536c-28.276 0-51.2 22.922-51.2 51.2s22.924 51.2 51.2 51.2h1536c28.278 0 51.2-22.922 51.2-51.2s-22.922-51.2-51.2-51.2zM1792 204.8h-1536c-28.276 0-51.2 22.922-51.2 51.2s22.924 51.2 51.2 51.2h1536c28.278 0 51.2-22.922 51.2-51.2s-22.922-51.2-51.2-51.2z" />
<glyph unicode="&#xe9e9;" glyph-name="ellipsis" data-tags="ellipsis, dots" d="M256 614.4c-141.158 0-256 114.842-256 256s114.842 256 256 256 256-114.842 256-256-114.842-256-256-256zM256 1024c-84.694 0-153.6-68.906-153.6-153.6s68.906-153.6 153.6-153.6 153.6 68.906 153.6 153.6c0 84.694-68.906 153.6-153.6 153.6zM972.8 614.4c-141.158 0-256 114.842-256 256s114.842 256 256 256 256-114.842 256-256-114.842-256-256-256zM972.8 1024c-84.694 0-153.6-68.906-153.6-153.6s68.906-153.6 153.6-153.6c84.694 0 153.6 68.906 153.6 153.6s-68.906 153.6-153.6 153.6zM1689.6 614.4c-141.158 0-256 114.842-256 256s114.842 256 256 256 256-114.842 256-256-114.842-256-256-256zM1689.6 1024c-84.694 0-153.6-68.906-153.6-153.6s68.906-153.6 153.6-153.6 153.6 68.906 153.6 153.6c0 84.694-68.906 153.6-153.6 153.6z" />
<glyph unicode="" glyph-name="ellipsis" data-tags="ellipsis, dots" d="M256 614.4c-141.158 0-256 114.842-256 256s114.842 256 256 256 256-114.842 256-256-114.842-256-256-256zM256 1024c-84.694 0-153.6-68.906-153.6-153.6s68.906-153.6 153.6-153.6 153.6 68.906 153.6 153.6c0 84.694-68.906 153.6-153.6 153.6zM972.8 614.4c-141.158 0-256 114.842-256 256s114.842 256 256 256 256-114.842 256-256-114.842-256-256-256zM972.8 1024c-84.694 0-153.6-68.906-153.6-153.6s68.906-153.6 153.6-153.6c84.694 0 153.6 68.906 153.6 153.6s-68.906 153.6-153.6 153.6zM1689.6 614.4c-141.158 0-256 114.842-256 256s114.842 256 256 256 256-114.842 256-256-114.842-256-256-256zM1689.6 1024c-84.694 0-153.6-68.906-153.6-153.6s68.906-153.6 153.6-153.6 153.6 68.906 153.6 153.6c0 84.694-68.906 153.6-153.6 153.6z" />
<glyph unicode="write4" glyph-name="pencil3" data-tags="pencil, write, edit" d="M1996.8 1331.2c0 282.316-229.68 512-512 512-77.148 0-151.328-16.748-220.468-49.78-5.402-2.58-10.096-6.020-14.1-10.026l-0.032 0.032-1081.606-1081.626c-7.834-7.834-12.916-17.996-14.48-28.964l-102.4-716.8c-2.278-15.952 3.084-32.052 14.484-43.444 9.668-9.668 22.724-14.998 36.198-14.998 2.406 0 4.826 0.17 7.244 0.516l716.8 102.4c10.966 1.564 21.13 6.646 28.964 14.48l1080.826 1080.8c0.028 0.026 0.054 0.054 0.076 0.076l0.714 0.714-0.010 0.010c4.004 4.004 7.42 8.724 10.004 14.122 33.036 69.152 49.786 143.332 49.786 220.486zM1894.4 1331.2c0-58.912-12.208-115.6-36.244-168.656l-117.78-117.78c-10.72 294.068-247.942 531.292-542.012 542.012l117.782 117.782c53.056 24.032 109.748 36.24 168.652 36.24 225.852 0 409.6-183.744 409.6-409.6zM205.318 307.188l43.36 303.532c19.35 2.444 38.928 3.68 58.522 3.68 254.086 0 460.8-206.714 460.8-460.8 0-19.594-1.248-39.168-3.692-58.522l-303.52-43.36c-0.282 140.748-114.72 255.188-255.468 255.468zM1087.6 1476.006c29.482 5.83 59.684 8.794 90 8.794 108.636 0 208.596-37.812 287.46-100.934l-797.66-797.66c-92.736 77.348-210.624 125.472-339.418 130.172l759.62 759.628zM739.808 513.798l797.658 797.66c63.124-78.864 100.934-178.822 100.934-287.46 0-30.31-2.966-60.516-8.794-90.004l-759.628-759.612c-4.698 128.79-52.826 246.678-130.17 339.414zM190.596 204.128c4.708 0.428 9.444 0.672 14.204 0.672 84.694 0 153.6-68.902 153.6-153.6 0-4.762-0.244-9.498-0.672-14.202l-194.988-27.856 27.856 194.986z" />
<glyph unicode="write" glyph-name="pencil" data-tags="pencil, write, edit" d="M1956.202 1853.804c-57.54 57.536-134.036 89.222-215.402 89.222-81.37 0-157.866-31.686-215.402-89.222l-1305.6-1305.6c-5.29-5.29-9.356-11.674-11.914-18.708l-204.8-563.2c-6.8-18.694-2.154-39.636 11.914-53.7 9.77-9.776 22.86-14.998 36.208-14.998 5.866 0 11.782 1.004 17.488 3.082l563.2 204.8c7.030 2.56 13.418 6.624 18.708 11.916l1305.6 1305.6c57.536 57.536 89.226 134.036 89.226 215.404s-31.686 157.866-89.226 215.402zM586.228 197.834l-449.418-163.42 163.424 449.414 1133.366 1133.366 285.994-285.994-1133.366-1133.366zM1883.798 1495.404l-91.798-91.798-285.994 285.994 91.798 91.798c38.196 38.196 88.98 59.228 142.996 59.228s104.8-21.036 142.998-59.232c38.196-38.196 59.232-88.98 59.232-142.996s-21.040-104.8-59.232-142.996z" />
<glyph unicode="wall" glyph-name="wall" data-tags="wall, bricks" d="M1894.4 1228.8c28.278 0 51.2 22.924 51.2 51.2s-22.922 51.2-51.2 51.2h-256v307.2h256c28.278 0 51.2 22.924 51.2 51.2s-22.922 51.2-51.2 51.2h-1843.2c-28.276 0-51.2-22.924-51.2-51.2s22.924-51.2 51.2-51.2h563.2v-307.2h-563.2c-28.276 0-51.2-22.924-51.2-51.2s22.924-51.2 51.2-51.2h256v-307.2h-256c-28.276 0-51.2-22.922-51.2-51.2s22.924-51.2 51.2-51.2h563.2v-307.2h-563.2c-28.276 0-51.2-22.922-51.2-51.2s22.924-51.2 51.2-51.2h256v-307.2h-256c-28.276 0-51.2-22.922-51.2-51.2s22.924-51.2 51.2-51.2h1843.2c28.278 0 51.2 22.922 51.2 51.2s-22.922 51.2-51.2 51.2h-563.2v307.2h563.2c28.278 0 51.2 22.922 51.2 51.2s-22.922 51.2-51.2 51.2h-256v307.2h256c28.278 0 51.2 22.922 51.2 51.2s-22.922 51.2-51.2 51.2h-563.2v307.2h563.2zM716.8 1638.4h819.2v-307.2h-819.2v307.2zM1228.8 102.4h-819.2v307.2h819.2v-307.2zM1536 512h-819.2v307.2h819.2v-307.2zM1228.8 921.6h-819.2v307.2h819.2v-307.2z" />
<glyph unicode="video2" glyph-name="film-play" data-tags="film-play, video, movie" d="M767.994 409.6c-7.804 0-15.644 1.782-22.89 5.404-17.348 8.672-28.304 26.4-28.304 45.796v921.6c0 19.396 10.956 37.124 28.304 45.796 17.34 8.668 38.102 6.8 53.616-4.836l614.4-460.8c12.892-9.668 20.48-24.844 20.48-40.96s-7.588-31.29-20.48-40.96l-614.4-460.8c-9.034-6.774-19.846-10.24-30.726-10.24zM819.2 1280v-716.8l477.866 358.4-477.866 358.4zM1996.8 1740.8h-1945.6c-28.276 0-51.2-22.924-51.2-51.2v-1536c0-28.278 22.924-51.2 51.2-51.2h1945.6c28.278 0 51.2 22.922 51.2 51.2v1536c0 28.276-22.922 51.2-51.2 51.2zM307.2 819.2h-204.8v204.8h204.8v-204.8zM307.2 1126.4h-204.8v204.8h204.8v-204.8zM102.4 716.8h204.8v-204.8h-204.8v204.8zM409.6 1638.4h1228.8v-1433.6h-1228.8v1433.6zM1740.8 1024h204.8v-204.8h-204.8v204.8zM1740.8 1126.4v204.8h204.8v-204.8h-204.8zM1740.8 716.8h204.8v-204.8h-204.8v204.8zM1945.6 1433.6h-204.8v204.8h204.8v-204.8zM307.2 1638.4v-204.8h-204.8v204.8h204.8zM102.4 409.6h204.8v-204.8h-204.8v204.8zM1740.8 204.8v204.8h204.8v-204.8h-204.8z" />
<glyph unicode="url4" glyph-name="unlink2" data-tags="unlink, url" d="M1382.4 768c-13.104 0-26.204 4.998-36.202 14.998-19.996 19.994-19.996 52.412 0 72.406l314.166 314.166c51.872 51.872 80.442 120.842 80.442 194.198s-28.57 142.324-80.442 194.196c-107.078 107.076-281.308 107.082-388.394 0l-314.166-314.164c-19.994-19.996-52.412-19.996-72.406 0-19.996 19.994-19.996 52.412 0 72.406l314.166 314.166c147.008 147.004 386.208 146.998 533.206 0 71.216-71.212 110.436-165.894 110.436-266.604s-39.22-195.392-110.436-266.604l-314.166-314.164c-10-10.004-23.1-15.002-36.204-15.002zM479.434-0.004c-100.71 0-195.392 39.22-266.604 110.436-147.002 147.002-147.002 386.202 0 533.206l314.166 314.166c19.994 19.996 52.412 19.996 72.406 0 19.996-19.994 19.996-52.412 0-72.406l-314.164-314.166c-107.076-107.082-107.076-281.316 0-388.394 51.872-51.872 120.838-80.442 194.196-80.442s142.324 28.57 194.196 80.442l314.166 314.166c19.994 19.994 52.412 19.994 72.406 0 19.996-19.994 19.996-52.412 0-72.406l-314.166-314.166c-71.21-71.216-165.892-110.436-266.602-110.436zM563.2 1228.8c-13.104 0-26.204 4.998-36.202 14.998l-204.8 204.8c-19.996 19.994-19.996 52.412 0 72.406 19.994 19.996 52.412 19.996 72.406 0l204.8-204.8c19.996-19.994 19.996-52.412 0-72.406-10-10-23.1-14.998-36.204-14.998zM768 1331.2c-28.276 0-51.2 22.924-51.2 51.2v307.2c0 28.276 22.924 51.2 51.2 51.2s51.2-22.924 51.2-51.2v-307.2c0-28.276-22.924-51.2-51.2-51.2zM460.8 1024h-307.2c-28.276 0-51.2 22.924-51.2 51.2s22.924 51.2 51.2 51.2h307.2c28.276 0 51.2-22.924 51.2-51.2s-22.924-51.2-51.2-51.2zM1587.2 204.8c-13.104 0-26.204 4.998-36.202 14.998l-204.8 204.8c-19.996 19.994-19.996 52.412 0 72.406 19.994 19.994 52.412 19.994 72.406 0l204.8-204.8c19.996-19.994 19.996-52.412 0-72.406-10-10-23.1-14.998-36.204-14.998zM1792.004 614.4h-307.204c-28.278 0-51.2 22.922-51.2 51.2s22.922 51.2 51.2 51.2h307.204c28.278 0 51.2-22.922 51.2-51.2s-22.922-51.2-51.2-51.2zM1177.6 0c-28.278 0-51.2 22.922-51.2 51.2v307.2c0 28.278 22.922 51.2 51.2 51.2s51.2-22.922 51.2-51.2v-307.2c0-28.278-22.922-51.2-51.2-51.2z" />
<glyph unicode="url3" glyph-name="link2" data-tags="link, url" d="M1093.834 614.576c-96.55 0-193.1 36.752-266.602 110.256-19.996 19.994-19.996 52.412 0 72.406s52.41 19.994 72.406 0c107.078-107.082 281.312-107.082 388.394 0l372.332 372.332c107.078 107.078 107.078 281.312 0 388.394-107.082 107.078-281.312 107.076-388.394 0l-314.164-314.166c-19.996-19.994-52.412-19.994-72.406 0-19.996 19.996-19.996 52.412 0 72.41l314.166 314.166c147.004 147.002 386.202 147.002 533.206 0s147.004-386.202 0-533.206l-372.336-372.336c-73.504-73.504-170.054-110.256-266.604-110.256zM479.434 0.176c-96.55 0-193.1 36.752-266.604 110.256-147.002 147.004-147.002 386.202 0 533.206l372.332 372.332c147.002 147.002 386.202 147.002 533.206 0 19.996-19.996 19.996-52.412 0-72.406-19.994-19.996-52.412-19.996-72.406 0-107.082 107.082-281.312 107.082-388.394 0l-372.33-372.332c-107.078-107.082-107.078-281.312 0-388.394s281.312-107.082 388.39 0l314.166 314.166c19.994 19.994 52.412 19.994 72.406 0 19.996-19.994 19.996-52.412 0-72.406l-314.166-314.166c-73.5-73.504-170.052-110.256-266.602-110.256z" />
<glyph unicode="upload2" glyph-name="upload2" data-tags="upload, up, arrow" d="M1792 0h-1638.4c-84.694 0-153.6 68.902-153.6 153.6v204.8c0 28.278 22.924 51.2 51.2 51.2s51.2-22.922 51.2-51.2v-204.8c0-28.23 22.97-51.2 51.2-51.2h1638.4c28.23 0 51.2 22.97 51.2 51.2v204.8c0 28.278 22.922 51.2 51.2 51.2s51.2-22.922 51.2-51.2v-204.8c0-84.698-68.902-153.6-153.6-153.6zM1521.002 1060.204l-512 512c-19.996 19.994-52.412 19.994-72.41 0l-512-512c-19.994-19.996-19.994-52.412 0-72.406s52.412-19.994 72.41 0l424.598 424.596v-1053.994c0-28.278 22.924-51.2 51.2-51.2s51.2 22.922 51.2 51.2v1053.994l424.598-424.596c9.996-10 23.098-14.998 36.202-14.998s26.204 4.998 36.202 14.998c19.996 19.994 19.996 52.41 0 72.406z" />
<glyph unicode="up7" glyph-name="chevron-up" data-tags="chevron-up, up" d="M0 409.6c0-13.104 4.998-26.204 14.998-36.202 19.994-19.996 52.412-19.996 72.406 0l885.396 885.396 885.398-885.396c19.994-19.996 52.412-19.996 72.406 0s19.996 52.412 0 72.406l-921.6 921.6c-19.994 19.996-52.412 19.996-72.406 0l-921.6-921.6c-10-10-14.998-23.1-14.998-36.204z" />
<glyph unicode="up2" glyph-name="upload2" data-tags="upload, up, arrow" d="M1792 0h-1638.4c-84.694 0-153.6 68.902-153.6 153.6v204.8c0 28.278 22.924 51.2 51.2 51.2s51.2-22.922 51.2-51.2v-204.8c0-28.23 22.97-51.2 51.2-51.2h1638.4c28.23 0 51.2 22.97 51.2 51.2v204.8c0 28.278 22.922 51.2 51.2 51.2s51.2-22.922 51.2-51.2v-204.8c0-84.698-68.902-153.6-153.6-153.6zM1521.002 1060.204l-512 512c-19.996 19.994-52.412 19.994-72.41 0l-512-512c-19.994-19.996-19.994-52.412 0-72.406s52.412-19.994 72.41 0l424.598 424.596v-1053.994c0-28.278 22.924-51.2 51.2-51.2s51.2 22.922 51.2 51.2v1053.994l424.598-424.596c9.996-10 23.098-14.998 36.202-14.998s26.204 4.998 36.202 14.998c19.996 19.994 19.996 52.41 0 72.406z" />
<glyph unicode="unlink2" glyph-name="unlink2" data-tags="unlink, url" d="M1382.4 768c-13.104 0-26.204 4.998-36.202 14.998-19.996 19.994-19.996 52.412 0 72.406l314.166 314.166c51.872 51.872 80.442 120.842 80.442 194.198s-28.57 142.324-80.442 194.196c-107.078 107.076-281.308 107.082-388.394 0l-314.166-314.164c-19.994-19.996-52.412-19.996-72.406 0-19.996 19.994-19.996 52.412 0 72.406l314.166 314.166c147.008 147.004 386.208 146.998 533.206 0 71.216-71.212 110.436-165.894 110.436-266.604s-39.22-195.392-110.436-266.604l-314.166-314.164c-10-10.004-23.1-15.002-36.204-15.002zM479.434-0.004c-100.71 0-195.392 39.22-266.604 110.436-147.002 147.002-147.002 386.202 0 533.206l314.166 314.166c19.994 19.996 52.412 19.996 72.406 0 19.996-19.994 19.996-52.412 0-72.406l-314.164-314.166c-107.076-107.082-107.076-281.316 0-388.394 51.872-51.872 120.838-80.442 194.196-80.442s142.324 28.57 194.196 80.442l314.166 314.166c19.994 19.994 52.412 19.994 72.406 0 19.996-19.994 19.996-52.412 0-72.406l-314.166-314.166c-71.21-71.216-165.892-110.436-266.602-110.436zM563.2 1228.8c-13.104 0-26.204 4.998-36.202 14.998l-204.8 204.8c-19.996 19.994-19.996 52.412 0 72.406 19.994 19.996 52.412 19.996 72.406 0l204.8-204.8c19.996-19.994 19.996-52.412 0-72.406-10-10-23.1-14.998-36.204-14.998zM768 1331.2c-28.276 0-51.2 22.924-51.2 51.2v307.2c0 28.276 22.924 51.2 51.2 51.2s51.2-22.924 51.2-51.2v-307.2c0-28.276-22.924-51.2-51.2-51.2zM460.8 1024h-307.2c-28.276 0-51.2 22.924-51.2 51.2s22.924 51.2 51.2 51.2h307.2c28.276 0 51.2-22.924 51.2-51.2s-22.924-51.2-51.2-51.2zM1587.2 204.8c-13.104 0-26.204 4.998-36.202 14.998l-204.8 204.8c-19.996 19.994-19.996 52.412 0 72.406 19.994 19.994 52.412 19.994 72.406 0l204.8-204.8c19.996-19.994 19.996-52.412 0-72.406-10-10-23.1-14.998-36.204-14.998zM1792.004 614.4h-307.204c-28.278 0-51.2 22.922-51.2 51.2s22.922 51.2 51.2 51.2h307.204c28.278 0 51.2-22.922 51.2-51.2s-22.922-51.2-51.2-51.2zM1177.6 0c-28.278 0-51.2 22.922-51.2 51.2v307.2c0 28.278 22.922 51.2 51.2 51.2s51.2-22.922 51.2-51.2v-307.2c0-28.278-22.922-51.2-51.2-51.2z" />
<glyph unicode="undo2" glyph-name="undo2" data-tags="undo, ccw, arrow" d="M1793.066 1485.866c-164.396 164.396-382.976 254.934-615.466 254.934s-451.068-90.538-615.466-254.934-254.934-382.972-254.934-615.466v-132.394l-219.798 219.798c-19.994 19.994-52.412 19.994-72.406 0s-19.996-52.412 0-72.406l307.2-307.2c10-10 23.1-14.998 36.204-14.998s26.204 4.998 36.202 14.998l307.2 307.2c19.996 19.994 19.996 52.412 0 72.406s-52.412 19.994-72.406 0l-219.796-219.798v132.394c0 423.476 344.524 768 768 768 423.478 0 768-344.524 768-768s-344.522-768-768-768c-28.278 0-51.2-22.922-51.2-51.2s22.922-51.2 51.2-51.2c232.49 0 451.068 90.538 615.466 254.934s254.934 382.976 254.934 615.466c0 232.492-90.538 451.068-254.934 615.466z" />
<glyph unicode="typography9" glyph-name="text-align-left" data-tags="text-align-left, typography, paragraph" d="M1792 1433.6h-1536c-28.276 0-51.2 22.924-51.2 51.2s22.924 51.2 51.2 51.2h1536c28.278 0 51.2-22.924 51.2-51.2s-22.922-51.2-51.2-51.2zM1382.4 1126.4h-1126.4c-28.276 0-51.2 22.922-51.2 51.2s22.924 51.2 51.2 51.2h1126.4c28.278 0 51.2-22.922 51.2-51.2s-22.922-51.2-51.2-51.2zM1792 819.2h-1536c-28.276 0-51.2 22.922-51.2 51.2s22.924 51.2 51.2 51.2h1536c28.278 0 51.2-22.922 51.2-51.2s-22.922-51.2-51.2-51.2zM1382.4 512h-1126.4c-28.276 0-51.2 22.922-51.2 51.2s22.924 51.2 51.2 51.2h1126.4c28.278 0 51.2-22.922 51.2-51.2s-22.922-51.2-51.2-51.2zM1792 204.8h-1536c-28.276 0-51.2 22.922-51.2 51.2s22.924 51.2 51.2 51.2h1536c28.278 0 51.2-22.922 51.2-51.2s-22.922-51.2-51.2-51.2z" />
<glyph unicode="typography4" glyph-name="text-size" data-tags="text-size, typography, font-size" d="M712.662 276.17l-131.468 306.762c-0.060 0.144-0.122 0.288-0.186 0.432l-175.546 409.606c-8.070 18.826-26.582 31.030-47.062 31.030s-38.992-12.204-47.062-31.030l-175.542-409.606c-0.064-0.144-0.124-0.288-0.186-0.432l-131.472-306.762c-11.136-25.99 0.902-56.090 26.892-67.228 25.994-11.14 56.092 0.902 67.228 26.89l118.358 276.17h283.562l118.358-276.17c8.324-19.414 27.22-31.046 47.084-31.044 6.726 0 13.568 1.334 20.144 4.154 25.994 11.136 38.032 41.238 26.896 67.228zM260.502 614.4l97.898 228.426 97.898-228.426h-195.796zM2044.064 275.692l-213.338 512.006c-0.058 0.138-0.112 0.276-0.17 0.41l-298.492 716.384c-7.952 19.078-26.596 31.508-47.264 31.508s-39.312-12.428-47.264-31.508l-298.486-716.368c-0.064-0.15-0.122-0.298-0.186-0.444l-213.328-511.988c-10.876-26.102 1.466-56.076 27.568-66.956 26.096-10.87 56.080 1.468 66.954 27.568l200.208 480.496h529.066l200.204-480.492c8.196-19.664 27.232-31.52 47.284-31.52 6.564 0 13.236 1.268 19.67 3.948 26.106 10.88 38.448 40.854 27.574 66.956zM1262.934 819.2l221.866 532.48 221.866-532.48h-443.732z" />
<glyph unicode="typography12" glyph-name="text-align-justify" data-tags="text-align-justify, typography, paragraph" d="M1792 1433.6h-1536c-28.276 0-51.2 22.924-51.2 51.2s22.924 51.2 51.2 51.2h1536c28.278 0 51.2-22.924 51.2-51.2s-22.922-51.2-51.2-51.2zM1792 1126.4h-1536c-28.276 0-51.2 22.922-51.2 51.2s22.924 51.2 51.2 51.2h1536c28.278 0 51.2-22.922 51.2-51.2s-22.922-51.2-51.2-51.2zM1792 819.2h-1536c-28.276 0-51.2 22.922-51.2 51.2s22.924 51.2 51.2 51.2h1536c28.278 0 51.2-22.922 51.2-51.2s-22.922-51.2-51.2-51.2zM1792 512h-1536c-28.276 0-51.2 22.922-51.2 51.2s22.924 51.2 51.2 51.2h1536c28.278 0 51.2-22.922 51.2-51.2s-22.922-51.2-51.2-51.2zM1792 204.8h-1536c-28.276 0-51.2 22.922-51.2 51.2s22.924 51.2 51.2 51.2h1536c28.278 0 51.2-22.922 51.2-51.2s-22.922-51.2-51.2-51.2z" />
</font>
</defs>
</svg>
